M48
;DRILL file {KiCad (5.0.1)-4} date 25.11.2018 15:42:17
;FORMAT={-:-/ absolute / inch / decimal}
FMAT,2
INCH,TZ
T1C0.0150
T2C0.0300
T3C0.0315
%
G90
G05
M72
T1
X5.21Y-2.845
X5.29Y-3.27
X5.525Y-3.43
X5.84Y-3.25
X5.89Y-2.74
X5.985Y-3.38
X6.62Y-3.09
X6.62Y-3.26
T2
X6.465Y-2.76
X6.465Y-2.86
X6.465Y-2.96
X6.465Y-3.06
X6.865Y-2.76
X6.865Y-2.86
X6.865Y-2.96
X6.865Y-3.06
X6.865Y-3.16
X6.865Y-3.26
T3
X6.005Y-2.92
X6.005Y-3.02
X6.005Y-3.12
X6.005Y-3.22
X6.305Y-2.92
X6.305Y-3.02
X6.305Y-3.12
X6.305Y-3.22
T0
M30
