%TF.GenerationSoftware,KiCad,Pcbnew,5.0.0+dfsg1-2*%
%TF.CreationDate,2018-11-25T17:27:35+01:00*%
%TF.ProjectId,LoRa Environmental Sensors,4C6F526120456E7669726F6E6D656E74,01*%
%TF.SameCoordinates,Original*%
%TF.FileFunction,Copper,L1,Top,Signal*%
%TF.FilePolarity,Positive*%
%FSLAX46Y46*%
G04 Gerber Fmt 4.6, Leading zero omitted, Abs format (unit mm)*
G04 Created by KiCad (PCBNEW 5.0.0+dfsg1-2) date Sun Nov 25 17:27:35 2018*
%MOMM*%
%LPD*%
G01*
G04 APERTURE LIST*
%ADD10R,1.600000X1.600000*%
%ADD11O,1.600000X1.600000*%
%ADD12C,1.524000*%
%ADD13R,1.000000X2.000000*%
%ADD14C,0.762000*%
%ADD15C,0.762000*%
%ADD16C,0.254000*%
G04 APERTURE END LIST*
D10*
X160147000Y-81788000D03*
D11*
X152527000Y-74168000D03*
X160147000Y-79248000D03*
X152527000Y-76708000D03*
X160147000Y-76708000D03*
X152527000Y-79248000D03*
X160147000Y-74168000D03*
X152527000Y-81788000D03*
D12*
X164211000Y-70104000D03*
X164211000Y-72644000D03*
X164211000Y-75184000D03*
X164211000Y-77724000D03*
X174371000Y-72644000D03*
X174371000Y-75184000D03*
X174371000Y-77724000D03*
X174371000Y-80264000D03*
X174371000Y-82804000D03*
X174371000Y-70104000D03*
D13*
X146319000Y-69597000D03*
X144319000Y-69597000D03*
X142319000Y-69597000D03*
X140319000Y-69597000D03*
X138319000Y-69597000D03*
X136319000Y-69597000D03*
X134319000Y-69597000D03*
X132319000Y-69597000D03*
X132319000Y-85597000D03*
X134319000Y-85597000D03*
X136319000Y-85597000D03*
X138319000Y-85597000D03*
X140319000Y-85597000D03*
X142319000Y-85597000D03*
X144319000Y-85597000D03*
X146319000Y-85597000D03*
D14*
X134366000Y-83058000D03*
X132334000Y-72263000D03*
X149606000Y-69596000D03*
X152019000Y-85852000D03*
X148336000Y-82550000D03*
X168148000Y-78486000D03*
X168148000Y-82804000D03*
X140335000Y-87122000D03*
D15*
X134319000Y-85597000D02*
X134319000Y-83105000D01*
X134319000Y-83105000D02*
X134366000Y-83058000D01*
X132319000Y-69597000D02*
X132319000Y-72248000D01*
X132319000Y-72248000D02*
X132334000Y-72263000D01*
X146319000Y-69597000D02*
X149605000Y-69597000D01*
X149605000Y-69597000D02*
X149606000Y-69596000D01*
X148717000Y-82550000D02*
X152019000Y-85852000D01*
X148336000Y-82550000D02*
X148717000Y-82550000D01*
X168148000Y-78486000D02*
X168148000Y-82804000D01*
X140319000Y-85597000D02*
X140319000Y-87106000D01*
X140319000Y-87106000D02*
X140335000Y-87122000D01*
D16*
X144319000Y-70097000D02*
X144319000Y-69597000D01*
X148390000Y-74168000D02*
X144319000Y-70097000D01*
X152527000Y-74168000D02*
X148390000Y-74168000D01*
X173609001Y-76962001D02*
X174371000Y-77724000D01*
X170434001Y-73787001D02*
X173609001Y-76962001D01*
X163662359Y-73787001D02*
X170434001Y-73787001D01*
X162862357Y-72986999D02*
X163662359Y-73787001D01*
X153708001Y-72986999D02*
X162862357Y-72986999D01*
X152527000Y-74168000D02*
X153708001Y-72986999D01*
X140319000Y-70097000D02*
X140319000Y-69597000D01*
X149470000Y-79248000D02*
X140319000Y-70097000D01*
X152527000Y-79248000D02*
X149470000Y-79248000D01*
X142319000Y-70097000D02*
X142319000Y-69597000D01*
X148930000Y-76708000D02*
X142319000Y-70097000D01*
X152527000Y-76708000D02*
X148930000Y-76708000D01*
X170687999Y-76580999D02*
X173609001Y-79502001D01*
X163916357Y-76580999D02*
X170687999Y-76580999D01*
X162862357Y-75526999D02*
X163916357Y-76580999D01*
X173609001Y-79502001D02*
X174371000Y-80264000D01*
X154839371Y-75526999D02*
X162862357Y-75526999D01*
X153658370Y-76708000D02*
X154839371Y-75526999D01*
X152527000Y-76708000D02*
X153658370Y-76708000D01*
X173609001Y-83565999D02*
X174371000Y-82804000D01*
X173608990Y-83566010D02*
X173609001Y-83565999D01*
X164465010Y-83566010D02*
X173608990Y-83566010D01*
X160147000Y-79248000D02*
X164465010Y-83566010D01*
X138319000Y-70097000D02*
X138319000Y-69597000D01*
X148651001Y-80429001D02*
X138319000Y-70097000D01*
X153093881Y-80429001D02*
X148651001Y-80429001D01*
X156814882Y-76708000D02*
X153093881Y-80429001D01*
X160147000Y-76708000D02*
X156814882Y-76708000D01*
M02*
