G04 #@! TF.GenerationSoftware,KiCad,Pcbnew,(5.0.1)-4*
G04 #@! TF.CreationDate,2018-11-25T15:42:11+01:00*
G04 #@! TF.ProjectId,LoRa Environmental Sensors,4C6F526120456E7669726F6E6D656E74,01*
G04 #@! TF.SameCoordinates,Original*
G04 #@! TF.FileFunction,Copper,L1,Top,Signal*
G04 #@! TF.FilePolarity,Positive*
%FSLAX46Y46*%
G04 Gerber Fmt 4.6, Leading zero omitted, Abs format (unit mm)*
G04 Created by KiCad (PCBNEW (5.0.1)-4) date 25.11.2018 15:42:11*
%MOMM*%
%LPD*%
G01*
G04 APERTURE LIST*
G04 #@! TA.AperFunction,ComponentPad*
%ADD10R,1.600000X1.600000*%
G04 #@! TD*
G04 #@! TA.AperFunction,ComponentPad*
%ADD11O,1.600000X1.600000*%
G04 #@! TD*
G04 #@! TA.AperFunction,ComponentPad*
%ADD12C,1.524000*%
G04 #@! TD*
G04 #@! TA.AperFunction,SMDPad,CuDef*
%ADD13R,1.000000X2.000000*%
G04 #@! TD*
G04 #@! TA.AperFunction,ViaPad*
%ADD14C,0.762000*%
G04 #@! TD*
G04 #@! TA.AperFunction,Conductor*
%ADD15C,0.762000*%
G04 #@! TD*
G04 #@! TA.AperFunction,Conductor*
%ADD16C,0.254000*%
G04 #@! TD*
G04 APERTURE END LIST*
D10*
G04 #@! TO.P,U2,1*
G04 #@! TO.N,Net-(U2-Pad1)*
X160147000Y-81788000D03*
D11*
G04 #@! TO.P,U2,5*
G04 #@! TO.N,/MISO*
X152527000Y-74168000D03*
G04 #@! TO.P,U2,2*
G04 #@! TO.N,/CS*
X160147000Y-79248000D03*
G04 #@! TO.P,U2,6*
G04 #@! TO.N,/MOSI*
X152527000Y-76708000D03*
G04 #@! TO.P,U2,3*
G04 #@! TO.N,/NSS*
X160147000Y-76708000D03*
G04 #@! TO.P,U2,7*
G04 #@! TO.N,/SCK*
X152527000Y-79248000D03*
G04 #@! TO.P,U2,4*
G04 #@! TO.N,GND*
X160147000Y-74168000D03*
G04 #@! TO.P,U2,8*
G04 #@! TO.N,VCC*
X152527000Y-81788000D03*
G04 #@! TD*
D12*
G04 #@! TO.P,U1,1*
G04 #@! TO.N,GND*
X164211000Y-70104000D03*
G04 #@! TO.P,U1,2*
G04 #@! TO.N,VCC*
X164211000Y-72644000D03*
G04 #@! TO.P,U1,3*
G04 #@! TO.N,Net-(U1-Pad3)*
X164211000Y-75184000D03*
G04 #@! TO.P,U1,4*
G04 #@! TO.N,Net-(U1-Pad4)*
X164211000Y-77724000D03*
G04 #@! TO.P,U1,6*
G04 #@! TO.N,VCC*
X174371000Y-72644000D03*
G04 #@! TO.P,U1,7*
G04 #@! TO.N,/SCK*
X174371000Y-75184000D03*
G04 #@! TO.P,U1,8*
G04 #@! TO.N,/MISO*
X174371000Y-77724000D03*
G04 #@! TO.P,U1,9*
G04 #@! TO.N,/MOSI*
X174371000Y-80264000D03*
G04 #@! TO.P,U1,10*
G04 #@! TO.N,/CS*
X174371000Y-82804000D03*
G04 #@! TO.P,U1,5*
G04 #@! TO.N,GND*
X174371000Y-70104000D03*
G04 #@! TD*
D13*
G04 #@! TO.P,U3,1*
G04 #@! TO.N,GND*
X146319000Y-69597000D03*
G04 #@! TO.P,U3,2*
G04 #@! TO.N,/MISO*
X144319000Y-69597000D03*
G04 #@! TO.P,U3,3*
G04 #@! TO.N,/MOSI*
X142319000Y-69597000D03*
G04 #@! TO.P,U3,4*
G04 #@! TO.N,/SCK*
X140319000Y-69597000D03*
G04 #@! TO.P,U3,5*
G04 #@! TO.N,/NSS*
X138319000Y-69597000D03*
G04 #@! TO.P,U3,6*
G04 #@! TO.N,Net-(U3-Pad6)*
X136319000Y-69597000D03*
G04 #@! TO.P,U3,7*
G04 #@! TO.N,Net-(U3-Pad7)*
X134319000Y-69597000D03*
G04 #@! TO.P,U3,8*
G04 #@! TO.N,GND*
X132319000Y-69597000D03*
G04 #@! TO.P,U3,9*
G04 #@! TO.N,Net-(U3-Pad9)*
X132319000Y-85597000D03*
G04 #@! TO.P,U3,10*
G04 #@! TO.N,GND*
X134319000Y-85597000D03*
G04 #@! TO.P,U3,11*
G04 #@! TO.N,Net-(U3-Pad11)*
X136319000Y-85597000D03*
G04 #@! TO.P,U3,12*
G04 #@! TO.N,Net-(U3-Pad12)*
X138319000Y-85597000D03*
G04 #@! TO.P,U3,13*
G04 #@! TO.N,VCC*
X140319000Y-85597000D03*
G04 #@! TO.P,U3,14*
G04 #@! TO.N,Net-(U3-Pad14)*
X142319000Y-85597000D03*
G04 #@! TO.P,U3,15*
G04 #@! TO.N,Net-(U3-Pad15)*
X144319000Y-85597000D03*
G04 #@! TO.P,U3,16*
G04 #@! TO.N,Net-(U3-Pad16)*
X146319000Y-85597000D03*
G04 #@! TD*
D14*
G04 #@! TO.N,GND*
X134366000Y-83058000D03*
X132334000Y-72263000D03*
X149606000Y-69596000D03*
X152019000Y-85852000D03*
X148336000Y-82550000D03*
X168148000Y-78486000D03*
X168148000Y-82804000D03*
G04 #@! TO.N,VCC*
X140335000Y-87122000D03*
G04 #@! TD*
D15*
G04 #@! TO.N,GND*
X134319000Y-85597000D02*
X134319000Y-83105000D01*
X134319000Y-83105000D02*
X134366000Y-83058000D01*
X132319000Y-69597000D02*
X132319000Y-72248000D01*
X132319000Y-72248000D02*
X132334000Y-72263000D01*
X146319000Y-69597000D02*
X149605000Y-69597000D01*
X149605000Y-69597000D02*
X149606000Y-69596000D01*
X148717000Y-82550000D02*
X152019000Y-85852000D01*
X148336000Y-82550000D02*
X148717000Y-82550000D01*
X168148000Y-78486000D02*
X168148000Y-82804000D01*
G04 #@! TO.N,VCC*
X140319000Y-85597000D02*
X140319000Y-87106000D01*
X140319000Y-87106000D02*
X140335000Y-87122000D01*
D16*
G04 #@! TO.N,/MISO*
X144319000Y-70097000D02*
X144319000Y-69597000D01*
X148390000Y-74168000D02*
X144319000Y-70097000D01*
X152527000Y-74168000D02*
X148390000Y-74168000D01*
X173609001Y-76962001D02*
X174371000Y-77724000D01*
X170434001Y-73787001D02*
X173609001Y-76962001D01*
X163662359Y-73787001D02*
X170434001Y-73787001D01*
X162862357Y-72986999D02*
X163662359Y-73787001D01*
X153708001Y-72986999D02*
X162862357Y-72986999D01*
X152527000Y-74168000D02*
X153708001Y-72986999D01*
G04 #@! TO.N,/SCK*
X140319000Y-70097000D02*
X140319000Y-69597000D01*
X149470000Y-79248000D02*
X140319000Y-70097000D01*
X152527000Y-79248000D02*
X149470000Y-79248000D01*
G04 #@! TO.N,/MOSI*
X142319000Y-70097000D02*
X142319000Y-69597000D01*
X148930000Y-76708000D02*
X142319000Y-70097000D01*
X152527000Y-76708000D02*
X148930000Y-76708000D01*
X170687999Y-76580999D02*
X173609001Y-79502001D01*
X163916357Y-76580999D02*
X170687999Y-76580999D01*
X162862357Y-75526999D02*
X163916357Y-76580999D01*
X173609001Y-79502001D02*
X174371000Y-80264000D01*
X154839371Y-75526999D02*
X162862357Y-75526999D01*
X153658370Y-76708000D02*
X154839371Y-75526999D01*
X152527000Y-76708000D02*
X153658370Y-76708000D01*
G04 #@! TO.N,/CS*
X173609001Y-83565999D02*
X174371000Y-82804000D01*
X173608990Y-83566010D02*
X173609001Y-83565999D01*
X164465010Y-83566010D02*
X173608990Y-83566010D01*
X160147000Y-79248000D02*
X164465010Y-83566010D01*
G04 #@! TO.N,/NSS*
X138319000Y-70097000D02*
X138319000Y-69597000D01*
X148651001Y-80429001D02*
X138319000Y-70097000D01*
X153093881Y-80429001D02*
X148651001Y-80429001D01*
X156814882Y-76708000D02*
X153093881Y-80429001D01*
X160147000Y-76708000D02*
X156814882Y-76708000D01*
G04 #@! TD*
M02*
