%TF.GenerationSoftware,KiCad,Pcbnew,5.0.0+dfsg1-2*%
%TF.CreationDate,2018-11-25T17:27:35+01:00*%
%TF.ProjectId,LoRa Environmental Sensors,4C6F526120456E7669726F6E6D656E74,01*%
%TF.SameCoordinates,Original*%
%TF.FileFunction,Legend,Bot*%
%TF.FilePolarity,Positive*%
%FSLAX46Y46*%
G04 Gerber Fmt 4.6, Leading zero omitted, Abs format (unit mm)*
G04 Created by KiCad (PCBNEW 5.0.0+dfsg1-2) date Sun Nov 25 17:27:35 2018*
%MOMM*%
%LPD*%
G01*
G04 APERTURE LIST*
%ADD10C,0.031750*%
%ADD11C,0.100000*%
%ADD12C,0.010000*%
%ADD13C,0.150000*%
G04 APERTURE END LIST*
D10*
X176362934Y-88682285D02*
X176362934Y-88924190D01*
X175854934Y-88924190D01*
X176362934Y-88440380D02*
X176338744Y-88488761D01*
X176314553Y-88512952D01*
X176266172Y-88537142D01*
X176121029Y-88537142D01*
X176072648Y-88512952D01*
X176048458Y-88488761D01*
X176024267Y-88440380D01*
X176024267Y-88367809D01*
X176048458Y-88319428D01*
X176072648Y-88295238D01*
X176121029Y-88271047D01*
X176266172Y-88271047D01*
X176314553Y-88295238D01*
X176338744Y-88319428D01*
X176362934Y-88367809D01*
X176362934Y-88440380D01*
X176362934Y-87763047D02*
X176121029Y-87932380D01*
X176362934Y-88053333D02*
X175854934Y-88053333D01*
X175854934Y-87859809D01*
X175879125Y-87811428D01*
X175903315Y-87787238D01*
X175951696Y-87763047D01*
X176024267Y-87763047D01*
X176072648Y-87787238D01*
X176096839Y-87811428D01*
X176121029Y-87859809D01*
X176121029Y-88053333D01*
X176362934Y-87327619D02*
X176096839Y-87327619D01*
X176048458Y-87351809D01*
X176024267Y-87400190D01*
X176024267Y-87496952D01*
X176048458Y-87545333D01*
X176338744Y-87327619D02*
X176362934Y-87376000D01*
X176362934Y-87496952D01*
X176338744Y-87545333D01*
X176290363Y-87569523D01*
X176241982Y-87569523D01*
X176193601Y-87545333D01*
X176169410Y-87496952D01*
X176169410Y-87376000D01*
X176145220Y-87327619D01*
X176096839Y-86698666D02*
X176096839Y-86529333D01*
X176362934Y-86456761D02*
X176362934Y-86698666D01*
X175854934Y-86698666D01*
X175854934Y-86456761D01*
X176024267Y-86239047D02*
X176362934Y-86239047D01*
X176072648Y-86239047D02*
X176048458Y-86214857D01*
X176024267Y-86166476D01*
X176024267Y-86093904D01*
X176048458Y-86045523D01*
X176096839Y-86021333D01*
X176362934Y-86021333D01*
X176024267Y-85827809D02*
X176362934Y-85706857D01*
X176024267Y-85585904D01*
X176362934Y-85392380D02*
X176024267Y-85392380D01*
X175854934Y-85392380D02*
X175879125Y-85416571D01*
X175903315Y-85392380D01*
X175879125Y-85368190D01*
X175854934Y-85392380D01*
X175903315Y-85392380D01*
X176362934Y-85150476D02*
X176024267Y-85150476D01*
X176121029Y-85150476D02*
X176072648Y-85126285D01*
X176048458Y-85102095D01*
X176024267Y-85053714D01*
X176024267Y-85005333D01*
X176362934Y-84763428D02*
X176338744Y-84811809D01*
X176314553Y-84836000D01*
X176266172Y-84860190D01*
X176121029Y-84860190D01*
X176072648Y-84836000D01*
X176048458Y-84811809D01*
X176024267Y-84763428D01*
X176024267Y-84690857D01*
X176048458Y-84642476D01*
X176072648Y-84618285D01*
X176121029Y-84594095D01*
X176266172Y-84594095D01*
X176314553Y-84618285D01*
X176338744Y-84642476D01*
X176362934Y-84690857D01*
X176362934Y-84763428D01*
X176024267Y-84376380D02*
X176362934Y-84376380D01*
X176072648Y-84376380D02*
X176048458Y-84352190D01*
X176024267Y-84303809D01*
X176024267Y-84231238D01*
X176048458Y-84182857D01*
X176096839Y-84158666D01*
X176362934Y-84158666D01*
X176362934Y-83916761D02*
X176024267Y-83916761D01*
X176072648Y-83916761D02*
X176048458Y-83892571D01*
X176024267Y-83844190D01*
X176024267Y-83771619D01*
X176048458Y-83723238D01*
X176096839Y-83699047D01*
X176362934Y-83699047D01*
X176096839Y-83699047D02*
X176048458Y-83674857D01*
X176024267Y-83626476D01*
X176024267Y-83553904D01*
X176048458Y-83505523D01*
X176096839Y-83481333D01*
X176362934Y-83481333D01*
X176338744Y-83045904D02*
X176362934Y-83094285D01*
X176362934Y-83191047D01*
X176338744Y-83239428D01*
X176290363Y-83263619D01*
X176096839Y-83263619D01*
X176048458Y-83239428D01*
X176024267Y-83191047D01*
X176024267Y-83094285D01*
X176048458Y-83045904D01*
X176096839Y-83021714D01*
X176145220Y-83021714D01*
X176193601Y-83263619D01*
X176024267Y-82804000D02*
X176362934Y-82804000D01*
X176072648Y-82804000D02*
X176048458Y-82779809D01*
X176024267Y-82731428D01*
X176024267Y-82658857D01*
X176048458Y-82610476D01*
X176096839Y-82586285D01*
X176362934Y-82586285D01*
X176024267Y-82416952D02*
X176024267Y-82223428D01*
X175854934Y-82344380D02*
X176290363Y-82344380D01*
X176338744Y-82320190D01*
X176362934Y-82271809D01*
X176362934Y-82223428D01*
X176362934Y-81836380D02*
X176096839Y-81836380D01*
X176048458Y-81860571D01*
X176024267Y-81908952D01*
X176024267Y-82005714D01*
X176048458Y-82054095D01*
X176338744Y-81836380D02*
X176362934Y-81884761D01*
X176362934Y-82005714D01*
X176338744Y-82054095D01*
X176290363Y-82078285D01*
X176241982Y-82078285D01*
X176193601Y-82054095D01*
X176169410Y-82005714D01*
X176169410Y-81884761D01*
X176145220Y-81836380D01*
X176362934Y-81521904D02*
X176338744Y-81570285D01*
X176290363Y-81594476D01*
X175854934Y-81594476D01*
X176338744Y-80965523D02*
X176362934Y-80892952D01*
X176362934Y-80772000D01*
X176338744Y-80723619D01*
X176314553Y-80699428D01*
X176266172Y-80675238D01*
X176217791Y-80675238D01*
X176169410Y-80699428D01*
X176145220Y-80723619D01*
X176121029Y-80772000D01*
X176096839Y-80868761D01*
X176072648Y-80917142D01*
X176048458Y-80941333D01*
X176000077Y-80965523D01*
X175951696Y-80965523D01*
X175903315Y-80941333D01*
X175879125Y-80917142D01*
X175854934Y-80868761D01*
X175854934Y-80747809D01*
X175879125Y-80675238D01*
X176338744Y-80264000D02*
X176362934Y-80312380D01*
X176362934Y-80409142D01*
X176338744Y-80457523D01*
X176290363Y-80481714D01*
X176096839Y-80481714D01*
X176048458Y-80457523D01*
X176024267Y-80409142D01*
X176024267Y-80312380D01*
X176048458Y-80264000D01*
X176096839Y-80239809D01*
X176145220Y-80239809D01*
X176193601Y-80481714D01*
X176024267Y-80022095D02*
X176362934Y-80022095D01*
X176072648Y-80022095D02*
X176048458Y-79997904D01*
X176024267Y-79949523D01*
X176024267Y-79876952D01*
X176048458Y-79828571D01*
X176096839Y-79804380D01*
X176362934Y-79804380D01*
X176338744Y-79586666D02*
X176362934Y-79538285D01*
X176362934Y-79441523D01*
X176338744Y-79393142D01*
X176290363Y-79368952D01*
X176266172Y-79368952D01*
X176217791Y-79393142D01*
X176193601Y-79441523D01*
X176193601Y-79514095D01*
X176169410Y-79562476D01*
X176121029Y-79586666D01*
X176096839Y-79586666D01*
X176048458Y-79562476D01*
X176024267Y-79514095D01*
X176024267Y-79441523D01*
X176048458Y-79393142D01*
X176362934Y-79078666D02*
X176338744Y-79127047D01*
X176314553Y-79151238D01*
X176266172Y-79175428D01*
X176121029Y-79175428D01*
X176072648Y-79151238D01*
X176048458Y-79127047D01*
X176024267Y-79078666D01*
X176024267Y-79006095D01*
X176048458Y-78957714D01*
X176072648Y-78933523D01*
X176121029Y-78909333D01*
X176266172Y-78909333D01*
X176314553Y-78933523D01*
X176338744Y-78957714D01*
X176362934Y-79006095D01*
X176362934Y-79078666D01*
X176362934Y-78691619D02*
X176024267Y-78691619D01*
X176121029Y-78691619D02*
X176072648Y-78667428D01*
X176048458Y-78643238D01*
X176024267Y-78594857D01*
X176024267Y-78546476D01*
X176338744Y-78401333D02*
X176362934Y-78352952D01*
X176362934Y-78256190D01*
X176338744Y-78207809D01*
X176290363Y-78183619D01*
X176266172Y-78183619D01*
X176217791Y-78207809D01*
X176193601Y-78256190D01*
X176193601Y-78328761D01*
X176169410Y-78377142D01*
X176121029Y-78401333D01*
X176096839Y-78401333D01*
X176048458Y-78377142D01*
X176024267Y-78328761D01*
X176024267Y-78256190D01*
X176048458Y-78207809D01*
X177156684Y-84618285D02*
X176914779Y-84787619D01*
X177156684Y-84908571D02*
X176648684Y-84908571D01*
X176648684Y-84715047D01*
X176672875Y-84666666D01*
X176697065Y-84642476D01*
X176745446Y-84618285D01*
X176818017Y-84618285D01*
X176866398Y-84642476D01*
X176890589Y-84666666D01*
X176914779Y-84715047D01*
X176914779Y-84908571D01*
X177132494Y-84207047D02*
X177156684Y-84255428D01*
X177156684Y-84352190D01*
X177132494Y-84400571D01*
X177084113Y-84424761D01*
X176890589Y-84424761D01*
X176842208Y-84400571D01*
X176818017Y-84352190D01*
X176818017Y-84255428D01*
X176842208Y-84207047D01*
X176890589Y-84182857D01*
X176938970Y-84182857D01*
X176987351Y-84424761D01*
X176818017Y-84013523D02*
X177156684Y-83892571D01*
X176818017Y-83771619D01*
X177108303Y-83578095D02*
X177132494Y-83553904D01*
X177156684Y-83578095D01*
X177132494Y-83602285D01*
X177108303Y-83578095D01*
X177156684Y-83578095D01*
X176648684Y-82852380D02*
X176648684Y-82804000D01*
X176672875Y-82755619D01*
X176697065Y-82731428D01*
X176745446Y-82707238D01*
X176842208Y-82683047D01*
X176963160Y-82683047D01*
X177059922Y-82707238D01*
X177108303Y-82731428D01*
X177132494Y-82755619D01*
X177156684Y-82804000D01*
X177156684Y-82852380D01*
X177132494Y-82900761D01*
X177108303Y-82924952D01*
X177059922Y-82949142D01*
X176963160Y-82973333D01*
X176842208Y-82973333D01*
X176745446Y-82949142D01*
X176697065Y-82924952D01*
X176672875Y-82900761D01*
X176648684Y-82852380D01*
X177156684Y-82199238D02*
X177156684Y-82489523D01*
X177156684Y-82344380D02*
X176648684Y-82344380D01*
X176721255Y-82392761D01*
X176769636Y-82441142D01*
X176793827Y-82489523D01*
D11*
X131781464Y-83474601D02*
G75*
G03X131785000Y-71470000I-7806464J6004601D01*
G01*
X131768470Y-83473354D02*
G75*
G03X132755000Y-86810000I1716530J-1306646D01*
G01*
X136705000Y-88250000D02*
X132755000Y-86810000D01*
X147875000Y-86170000D02*
X145795000Y-88250000D01*
X147875000Y-68770000D02*
X147875000Y-86170000D01*
X147875000Y-68770000D02*
X145795000Y-66690000D01*
X136705000Y-66690000D02*
X132755000Y-68130000D01*
X132746831Y-68144756D02*
G75*
G03X131785000Y-71470000I738169J-2015244D01*
G01*
X145795000Y-88250000D02*
X143335000Y-88250000D01*
X137335000Y-88250000D02*
X136705000Y-88250000D01*
X145795000Y-66690000D02*
X143335000Y-66690000D01*
X137335000Y-66690000D02*
X136705000Y-66690000D01*
D12*
G36*
X168030409Y-86664473D02*
X168054754Y-86691317D01*
X168103727Y-86736823D01*
X168184400Y-86806984D01*
X168303843Y-86907791D01*
X168469127Y-87045237D01*
X168687322Y-87225312D01*
X168965499Y-87454008D01*
X169310730Y-87737318D01*
X169566580Y-87947151D01*
X170789600Y-88950102D01*
X175285400Y-88950800D01*
X175285400Y-84386132D01*
X175234600Y-84386034D01*
X175234600Y-84506098D01*
X175234600Y-88823501D01*
X174155249Y-87744150D01*
X173075898Y-86664800D01*
X175234600Y-84506098D01*
X175234600Y-84386034D01*
X173037500Y-84381779D01*
X173012553Y-84381731D01*
X173012553Y-84480400D01*
X173465592Y-84480704D01*
X173885526Y-84481573D01*
X174261828Y-84482942D01*
X174583972Y-84484745D01*
X174841431Y-84486917D01*
X175023678Y-84489393D01*
X175120185Y-84492108D01*
X175133000Y-84493553D01*
X175098497Y-84531359D01*
X175000922Y-84631873D01*
X174849174Y-84786092D01*
X174652154Y-84985012D01*
X174418762Y-85219630D01*
X174157897Y-85480943D01*
X174078451Y-85560358D01*
X173023903Y-86614010D01*
X173023903Y-86715589D01*
X174078945Y-87769694D01*
X175133987Y-88823800D01*
X173164993Y-88849200D01*
X172721828Y-88854381D01*
X172306014Y-88858220D01*
X171929573Y-88860681D01*
X171604529Y-88861730D01*
X171342905Y-88861331D01*
X171156725Y-88859451D01*
X171058012Y-88856054D01*
X171050643Y-88855304D01*
X171012437Y-88846378D01*
X170994848Y-88826772D01*
X171004394Y-88788789D01*
X171047591Y-88724733D01*
X171130957Y-88626905D01*
X171261007Y-88487608D01*
X171444259Y-88299146D01*
X171687229Y-88053820D01*
X171964595Y-87775798D01*
X173023903Y-86715589D01*
X173023903Y-86614010D01*
X170892107Y-84480400D01*
X173012553Y-84480400D01*
X173012553Y-84381731D01*
X170815000Y-84377475D01*
X170815000Y-84506707D01*
X171881800Y-85572600D01*
X172150747Y-85842170D01*
X172394812Y-86088438D01*
X172605128Y-86302326D01*
X172772828Y-86474756D01*
X172889046Y-86596650D01*
X172944915Y-86658930D01*
X172948600Y-86664800D01*
X172914042Y-86705959D01*
X172816282Y-86809655D01*
X172664186Y-86966809D01*
X172466619Y-87168343D01*
X172232450Y-87405179D01*
X171970544Y-87668239D01*
X171881800Y-87757000D01*
X170815000Y-88822892D01*
X170815000Y-84506707D01*
X170815000Y-84377475D01*
X170789600Y-84377425D01*
X170738373Y-84419396D01*
X170738373Y-84531200D01*
X170743875Y-84580250D01*
X170748976Y-84720406D01*
X170753549Y-84941173D01*
X170757469Y-85232057D01*
X170760607Y-85582563D01*
X170762836Y-85982196D01*
X170764030Y-86420464D01*
X170764200Y-86664800D01*
X170763493Y-87119286D01*
X170761475Y-87540701D01*
X170758297Y-87918549D01*
X170754108Y-88242336D01*
X170749061Y-88501569D01*
X170743307Y-88685753D01*
X170736997Y-88784392D01*
X170733479Y-88798400D01*
X170683503Y-88767955D01*
X170574959Y-88686296D01*
X170426752Y-88567933D01*
X170339779Y-88496271D01*
X170182085Y-88365675D01*
X169965882Y-88187554D01*
X169711432Y-87978553D01*
X169438995Y-87755315D01*
X169189400Y-87551272D01*
X168938626Y-87345699D01*
X168706579Y-87153933D01*
X168507967Y-86988252D01*
X168357501Y-86860931D01*
X168269890Y-86784247D01*
X168265578Y-86780238D01*
X168129157Y-86652074D01*
X168728421Y-86163137D01*
X168987342Y-85951453D01*
X169292521Y-85701273D01*
X169611948Y-85438877D01*
X169913609Y-85190546D01*
X170020116Y-85102700D01*
X170245141Y-84918122D01*
X170442565Y-84758363D01*
X170599350Y-84633794D01*
X170702458Y-84554792D01*
X170738373Y-84531200D01*
X170738373Y-84419396D01*
X169418000Y-85501210D01*
X169097499Y-85763864D01*
X168802497Y-86005738D01*
X168542065Y-86219385D01*
X168325276Y-86397356D01*
X168161203Y-86532205D01*
X168058919Y-86616483D01*
X168027321Y-86642809D01*
X168023621Y-86650301D01*
X168030409Y-86664473D01*
X168030409Y-86664473D01*
G37*
X168030409Y-86664473D02*
X168054754Y-86691317D01*
X168103727Y-86736823D01*
X168184400Y-86806984D01*
X168303843Y-86907791D01*
X168469127Y-87045237D01*
X168687322Y-87225312D01*
X168965499Y-87454008D01*
X169310730Y-87737318D01*
X169566580Y-87947151D01*
X170789600Y-88950102D01*
X175285400Y-88950800D01*
X175285400Y-84386132D01*
X175234600Y-84386034D01*
X175234600Y-84506098D01*
X175234600Y-88823501D01*
X174155249Y-87744150D01*
X173075898Y-86664800D01*
X175234600Y-84506098D01*
X175234600Y-84386034D01*
X173037500Y-84381779D01*
X173012553Y-84381731D01*
X173012553Y-84480400D01*
X173465592Y-84480704D01*
X173885526Y-84481573D01*
X174261828Y-84482942D01*
X174583972Y-84484745D01*
X174841431Y-84486917D01*
X175023678Y-84489393D01*
X175120185Y-84492108D01*
X175133000Y-84493553D01*
X175098497Y-84531359D01*
X175000922Y-84631873D01*
X174849174Y-84786092D01*
X174652154Y-84985012D01*
X174418762Y-85219630D01*
X174157897Y-85480943D01*
X174078451Y-85560358D01*
X173023903Y-86614010D01*
X173023903Y-86715589D01*
X174078945Y-87769694D01*
X175133987Y-88823800D01*
X173164993Y-88849200D01*
X172721828Y-88854381D01*
X172306014Y-88858220D01*
X171929573Y-88860681D01*
X171604529Y-88861730D01*
X171342905Y-88861331D01*
X171156725Y-88859451D01*
X171058012Y-88856054D01*
X171050643Y-88855304D01*
X171012437Y-88846378D01*
X170994848Y-88826772D01*
X171004394Y-88788789D01*
X171047591Y-88724733D01*
X171130957Y-88626905D01*
X171261007Y-88487608D01*
X171444259Y-88299146D01*
X171687229Y-88053820D01*
X171964595Y-87775798D01*
X173023903Y-86715589D01*
X173023903Y-86614010D01*
X170892107Y-84480400D01*
X173012553Y-84480400D01*
X173012553Y-84381731D01*
X170815000Y-84377475D01*
X170815000Y-84506707D01*
X171881800Y-85572600D01*
X172150747Y-85842170D01*
X172394812Y-86088438D01*
X172605128Y-86302326D01*
X172772828Y-86474756D01*
X172889046Y-86596650D01*
X172944915Y-86658930D01*
X172948600Y-86664800D01*
X172914042Y-86705959D01*
X172816282Y-86809655D01*
X172664186Y-86966809D01*
X172466619Y-87168343D01*
X172232450Y-87405179D01*
X171970544Y-87668239D01*
X171881800Y-87757000D01*
X170815000Y-88822892D01*
X170815000Y-84506707D01*
X170815000Y-84377475D01*
X170789600Y-84377425D01*
X170738373Y-84419396D01*
X170738373Y-84531200D01*
X170743875Y-84580250D01*
X170748976Y-84720406D01*
X170753549Y-84941173D01*
X170757469Y-85232057D01*
X170760607Y-85582563D01*
X170762836Y-85982196D01*
X170764030Y-86420464D01*
X170764200Y-86664800D01*
X170763493Y-87119286D01*
X170761475Y-87540701D01*
X170758297Y-87918549D01*
X170754108Y-88242336D01*
X170749061Y-88501569D01*
X170743307Y-88685753D01*
X170736997Y-88784392D01*
X170733479Y-88798400D01*
X170683503Y-88767955D01*
X170574959Y-88686296D01*
X170426752Y-88567933D01*
X170339779Y-88496271D01*
X170182085Y-88365675D01*
X169965882Y-88187554D01*
X169711432Y-87978553D01*
X169438995Y-87755315D01*
X169189400Y-87551272D01*
X168938626Y-87345699D01*
X168706579Y-87153933D01*
X168507967Y-86988252D01*
X168357501Y-86860931D01*
X168269890Y-86784247D01*
X168265578Y-86780238D01*
X168129157Y-86652074D01*
X168728421Y-86163137D01*
X168987342Y-85951453D01*
X169292521Y-85701273D01*
X169611948Y-85438877D01*
X169913609Y-85190546D01*
X170020116Y-85102700D01*
X170245141Y-84918122D01*
X170442565Y-84758363D01*
X170599350Y-84633794D01*
X170702458Y-84554792D01*
X170738373Y-84531200D01*
X170738373Y-84419396D01*
X169418000Y-85501210D01*
X169097499Y-85763864D01*
X168802497Y-86005738D01*
X168542065Y-86219385D01*
X168325276Y-86397356D01*
X168161203Y-86532205D01*
X168058919Y-86616483D01*
X168027321Y-86642809D01*
X168023621Y-86650301D01*
X168030409Y-86664473D01*
D13*
X146867571Y-76557285D02*
X146915190Y-76700142D01*
X146962809Y-76747761D01*
X147058047Y-76795380D01*
X147200904Y-76795380D01*
X147296142Y-76747761D01*
X147343761Y-76700142D01*
X147391380Y-76604904D01*
X147391380Y-76223952D01*
X146391380Y-76223952D01*
X146391380Y-76557285D01*
X146439000Y-76652523D01*
X146486619Y-76700142D01*
X146581857Y-76747761D01*
X146677095Y-76747761D01*
X146772333Y-76700142D01*
X146819952Y-76652523D01*
X146867571Y-76557285D01*
X146867571Y-76223952D01*
X146391380Y-77081095D02*
X146391380Y-77652523D01*
X147391380Y-77366809D02*
X146391380Y-77366809D01*
X147391380Y-78509666D02*
X147391380Y-77938238D01*
X147391380Y-78223952D02*
X146391380Y-78223952D01*
X146534238Y-78128714D01*
X146629476Y-78033476D01*
X146677095Y-77938238D01*
M02*
