G04 #@! TF.GenerationSoftware,KiCad,Pcbnew,(5.0.1)-4*
G04 #@! TF.CreationDate,2018-11-25T14:20:29+01:00*
G04 #@! TF.ProjectId,LoRa Environmental Sensors,4C6F526120456E7669726F6E6D656E74,01*
G04 #@! TF.SameCoordinates,Original*
G04 #@! TF.FileFunction,Soldermask,Bot*
G04 #@! TF.FilePolarity,Negative*
%FSLAX46Y46*%
G04 Gerber Fmt 4.6, Leading zero omitted, Abs format (unit mm)*
G04 Created by KiCad (PCBNEW (5.0.1)-4) date 25.11.2018 14:20:29*
%MOMM*%
%LPD*%
G01*
G04 APERTURE LIST*
%ADD10C,0.100000*%
G04 APERTURE END LIST*
D10*
G36*
X142925800Y-89140800D02*
X137744200Y-89140800D01*
X137744200Y-87769200D01*
X142925800Y-87769200D01*
X142925800Y-89140800D01*
X142925800Y-89140800D01*
G37*
G36*
X174608085Y-84562435D02*
X174756004Y-84623705D01*
X174889133Y-84712659D01*
X175002341Y-84825867D01*
X175091295Y-84958996D01*
X175152565Y-85106915D01*
X175183800Y-85263945D01*
X175183800Y-85424055D01*
X175152565Y-85581085D01*
X175091295Y-85729004D01*
X175002341Y-85862133D01*
X174889133Y-85975341D01*
X174756004Y-86064295D01*
X174608085Y-86125565D01*
X174451055Y-86156800D01*
X174290945Y-86156800D01*
X174133915Y-86125565D01*
X173985996Y-86064295D01*
X173852867Y-85975341D01*
X173739659Y-85862133D01*
X173650705Y-85729004D01*
X173589435Y-85581085D01*
X173558200Y-85424055D01*
X173558200Y-85263945D01*
X173589435Y-85106915D01*
X173650705Y-84958996D01*
X173739659Y-84825867D01*
X173852867Y-84712659D01*
X173985996Y-84623705D01*
X174133915Y-84562435D01*
X174290945Y-84531200D01*
X174451055Y-84531200D01*
X174608085Y-84562435D01*
X174608085Y-84562435D01*
G37*
G36*
X164448085Y-84562435D02*
X164596004Y-84623705D01*
X164729133Y-84712659D01*
X164842341Y-84825867D01*
X164931295Y-84958996D01*
X164992565Y-85106915D01*
X165023800Y-85263945D01*
X165023800Y-85424055D01*
X164992565Y-85581085D01*
X164931295Y-85729004D01*
X164842341Y-85862133D01*
X164729133Y-85975341D01*
X164596004Y-86064295D01*
X164448085Y-86125565D01*
X164291055Y-86156800D01*
X164130945Y-86156800D01*
X163973915Y-86125565D01*
X163825996Y-86064295D01*
X163692867Y-85975341D01*
X163579659Y-85862133D01*
X163490705Y-85729004D01*
X163429435Y-85581085D01*
X163398200Y-85424055D01*
X163398200Y-85263945D01*
X163429435Y-85106915D01*
X163490705Y-84958996D01*
X163579659Y-84825867D01*
X163692867Y-84712659D01*
X163825996Y-84623705D01*
X163973915Y-84562435D01*
X164130945Y-84531200D01*
X164291055Y-84531200D01*
X164448085Y-84562435D01*
X164448085Y-84562435D01*
G37*
G36*
X174608085Y-82022435D02*
X174756004Y-82083705D01*
X174889133Y-82172659D01*
X175002341Y-82285867D01*
X175091295Y-82418996D01*
X175152565Y-82566915D01*
X175183800Y-82723945D01*
X175183800Y-82884055D01*
X175152565Y-83041085D01*
X175091295Y-83189004D01*
X175002341Y-83322133D01*
X174889133Y-83435341D01*
X174756004Y-83524295D01*
X174608085Y-83585565D01*
X174451055Y-83616800D01*
X174290945Y-83616800D01*
X174133915Y-83585565D01*
X173985996Y-83524295D01*
X173852867Y-83435341D01*
X173739659Y-83322133D01*
X173650705Y-83189004D01*
X173589435Y-83041085D01*
X173558200Y-82884055D01*
X173558200Y-82723945D01*
X173589435Y-82566915D01*
X173650705Y-82418996D01*
X173739659Y-82285867D01*
X173852867Y-82172659D01*
X173985996Y-82083705D01*
X174133915Y-82022435D01*
X174290945Y-81991200D01*
X174451055Y-81991200D01*
X174608085Y-82022435D01*
X174608085Y-82022435D01*
G37*
G36*
X164448085Y-82022435D02*
X164596004Y-82083705D01*
X164729133Y-82172659D01*
X164842341Y-82285867D01*
X164931295Y-82418996D01*
X164992565Y-82566915D01*
X165023800Y-82723945D01*
X165023800Y-82884055D01*
X164992565Y-83041085D01*
X164931295Y-83189004D01*
X164842341Y-83322133D01*
X164729133Y-83435341D01*
X164596004Y-83524295D01*
X164448085Y-83585565D01*
X164291055Y-83616800D01*
X164130945Y-83616800D01*
X163973915Y-83585565D01*
X163825996Y-83524295D01*
X163692867Y-83435341D01*
X163579659Y-83322133D01*
X163490705Y-83189004D01*
X163429435Y-83041085D01*
X163398200Y-82884055D01*
X163398200Y-82723945D01*
X163429435Y-82566915D01*
X163490705Y-82418996D01*
X163579659Y-82285867D01*
X163692867Y-82172659D01*
X163825996Y-82083705D01*
X163973915Y-82022435D01*
X164130945Y-81991200D01*
X164291055Y-81991200D01*
X164448085Y-82022435D01*
X164448085Y-82022435D01*
G37*
G36*
X152693787Y-80822510D02*
X152854160Y-80871160D01*
X152854162Y-80871161D01*
X153001966Y-80950163D01*
X153131517Y-81056483D01*
X153237837Y-81186034D01*
X153316839Y-81333838D01*
X153316840Y-81333840D01*
X153365490Y-81494213D01*
X153381916Y-81661000D01*
X153365490Y-81827787D01*
X153316840Y-81988160D01*
X153316839Y-81988162D01*
X153237837Y-82135966D01*
X153131517Y-82265517D01*
X153001966Y-82371837D01*
X152854162Y-82450839D01*
X152854160Y-82450840D01*
X152693787Y-82499490D01*
X152568794Y-82511800D01*
X152485206Y-82511800D01*
X152360213Y-82499490D01*
X152199840Y-82450840D01*
X152199838Y-82450839D01*
X152052034Y-82371837D01*
X151922483Y-82265517D01*
X151816163Y-82135966D01*
X151737161Y-81988162D01*
X151737160Y-81988160D01*
X151688510Y-81827787D01*
X151672084Y-81661000D01*
X151688510Y-81494213D01*
X151737160Y-81333840D01*
X151737161Y-81333838D01*
X151816163Y-81186034D01*
X151922483Y-81056483D01*
X152052034Y-80950163D01*
X152199838Y-80871161D01*
X152199840Y-80871160D01*
X152360213Y-80822510D01*
X152485206Y-80810200D01*
X152568794Y-80810200D01*
X152693787Y-80822510D01*
X152693787Y-80822510D01*
G37*
G36*
X160313787Y-80822510D02*
X160474160Y-80871160D01*
X160474162Y-80871161D01*
X160621966Y-80950163D01*
X160751517Y-81056483D01*
X160857837Y-81186034D01*
X160936839Y-81333838D01*
X160936840Y-81333840D01*
X160985490Y-81494213D01*
X161001916Y-81661000D01*
X160985490Y-81827787D01*
X160936840Y-81988160D01*
X160936839Y-81988162D01*
X160857837Y-82135966D01*
X160751517Y-82265517D01*
X160621966Y-82371837D01*
X160474162Y-82450839D01*
X160474160Y-82450840D01*
X160313787Y-82499490D01*
X160188794Y-82511800D01*
X160105206Y-82511800D01*
X159980213Y-82499490D01*
X159819840Y-82450840D01*
X159819838Y-82450839D01*
X159672034Y-82371837D01*
X159542483Y-82265517D01*
X159436163Y-82135966D01*
X159357161Y-81988162D01*
X159357160Y-81988160D01*
X159308510Y-81827787D01*
X159292084Y-81661000D01*
X159308510Y-81494213D01*
X159357160Y-81333840D01*
X159357161Y-81333838D01*
X159436163Y-81186034D01*
X159542483Y-81056483D01*
X159672034Y-80950163D01*
X159819838Y-80871161D01*
X159819840Y-80871160D01*
X159980213Y-80822510D01*
X160105206Y-80810200D01*
X160188794Y-80810200D01*
X160313787Y-80822510D01*
X160313787Y-80822510D01*
G37*
G36*
X174608085Y-79482435D02*
X174756004Y-79543705D01*
X174889133Y-79632659D01*
X175002341Y-79745867D01*
X175091295Y-79878996D01*
X175152565Y-80026915D01*
X175183800Y-80183945D01*
X175183800Y-80344055D01*
X175152565Y-80501085D01*
X175091295Y-80649004D01*
X175002341Y-80782133D01*
X174889133Y-80895341D01*
X174756004Y-80984295D01*
X174608085Y-81045565D01*
X174451055Y-81076800D01*
X174290945Y-81076800D01*
X174133915Y-81045565D01*
X173985996Y-80984295D01*
X173852867Y-80895341D01*
X173739659Y-80782133D01*
X173650705Y-80649004D01*
X173589435Y-80501085D01*
X173558200Y-80344055D01*
X173558200Y-80183945D01*
X173589435Y-80026915D01*
X173650705Y-79878996D01*
X173739659Y-79745867D01*
X173852867Y-79632659D01*
X173985996Y-79543705D01*
X174133915Y-79482435D01*
X174290945Y-79451200D01*
X174451055Y-79451200D01*
X174608085Y-79482435D01*
X174608085Y-79482435D01*
G37*
G36*
X164448085Y-79482435D02*
X164596004Y-79543705D01*
X164729133Y-79632659D01*
X164842341Y-79745867D01*
X164931295Y-79878996D01*
X164992565Y-80026915D01*
X165023800Y-80183945D01*
X165023800Y-80344055D01*
X164992565Y-80501085D01*
X164931295Y-80649004D01*
X164842341Y-80782133D01*
X164729133Y-80895341D01*
X164596004Y-80984295D01*
X164448085Y-81045565D01*
X164291055Y-81076800D01*
X164130945Y-81076800D01*
X163973915Y-81045565D01*
X163825996Y-80984295D01*
X163692867Y-80895341D01*
X163579659Y-80782133D01*
X163490705Y-80649004D01*
X163429435Y-80501085D01*
X163398200Y-80344055D01*
X163398200Y-80183945D01*
X163429435Y-80026915D01*
X163490705Y-79878996D01*
X163579659Y-79745867D01*
X163692867Y-79632659D01*
X163825996Y-79543705D01*
X163973915Y-79482435D01*
X164130945Y-79451200D01*
X164291055Y-79451200D01*
X164448085Y-79482435D01*
X164448085Y-79482435D01*
G37*
G36*
X152693787Y-78282510D02*
X152854160Y-78331160D01*
X152854162Y-78331161D01*
X153001966Y-78410163D01*
X153131517Y-78516483D01*
X153237837Y-78646034D01*
X153316839Y-78793838D01*
X153316840Y-78793840D01*
X153365490Y-78954213D01*
X153381916Y-79121000D01*
X153365490Y-79287787D01*
X153316840Y-79448160D01*
X153316839Y-79448162D01*
X153237837Y-79595966D01*
X153131517Y-79725517D01*
X153001966Y-79831837D01*
X152854162Y-79910839D01*
X152854160Y-79910840D01*
X152693787Y-79959490D01*
X152568794Y-79971800D01*
X152485206Y-79971800D01*
X152360213Y-79959490D01*
X152199840Y-79910840D01*
X152199838Y-79910839D01*
X152052034Y-79831837D01*
X151922483Y-79725517D01*
X151816163Y-79595966D01*
X151737161Y-79448162D01*
X151737160Y-79448160D01*
X151688510Y-79287787D01*
X151672084Y-79121000D01*
X151688510Y-78954213D01*
X151737160Y-78793840D01*
X151737161Y-78793838D01*
X151816163Y-78646034D01*
X151922483Y-78516483D01*
X152052034Y-78410163D01*
X152199838Y-78331161D01*
X152199840Y-78331160D01*
X152360213Y-78282510D01*
X152485206Y-78270200D01*
X152568794Y-78270200D01*
X152693787Y-78282510D01*
X152693787Y-78282510D01*
G37*
G36*
X160313787Y-78282510D02*
X160474160Y-78331160D01*
X160474162Y-78331161D01*
X160621966Y-78410163D01*
X160751517Y-78516483D01*
X160857837Y-78646034D01*
X160936839Y-78793838D01*
X160936840Y-78793840D01*
X160985490Y-78954213D01*
X161001916Y-79121000D01*
X160985490Y-79287787D01*
X160936840Y-79448160D01*
X160936839Y-79448162D01*
X160857837Y-79595966D01*
X160751517Y-79725517D01*
X160621966Y-79831837D01*
X160474162Y-79910839D01*
X160474160Y-79910840D01*
X160313787Y-79959490D01*
X160188794Y-79971800D01*
X160105206Y-79971800D01*
X159980213Y-79959490D01*
X159819840Y-79910840D01*
X159819838Y-79910839D01*
X159672034Y-79831837D01*
X159542483Y-79725517D01*
X159436163Y-79595966D01*
X159357161Y-79448162D01*
X159357160Y-79448160D01*
X159308510Y-79287787D01*
X159292084Y-79121000D01*
X159308510Y-78954213D01*
X159357160Y-78793840D01*
X159357161Y-78793838D01*
X159436163Y-78646034D01*
X159542483Y-78516483D01*
X159672034Y-78410163D01*
X159819838Y-78331161D01*
X159819840Y-78331160D01*
X159980213Y-78282510D01*
X160105206Y-78270200D01*
X160188794Y-78270200D01*
X160313787Y-78282510D01*
X160313787Y-78282510D01*
G37*
G36*
X142365800Y-79500800D02*
X138304200Y-79500800D01*
X138304200Y-75439200D01*
X142365800Y-75439200D01*
X142365800Y-79500800D01*
X142365800Y-79500800D01*
G37*
G36*
X174608085Y-76942435D02*
X174756004Y-77003705D01*
X174889133Y-77092659D01*
X175002341Y-77205867D01*
X175091295Y-77338996D01*
X175152565Y-77486915D01*
X175183800Y-77643945D01*
X175183800Y-77804055D01*
X175152565Y-77961085D01*
X175091295Y-78109004D01*
X175002341Y-78242133D01*
X174889133Y-78355341D01*
X174756004Y-78444295D01*
X174608085Y-78505565D01*
X174451055Y-78536800D01*
X174290945Y-78536800D01*
X174133915Y-78505565D01*
X173985996Y-78444295D01*
X173852867Y-78355341D01*
X173739659Y-78242133D01*
X173650705Y-78109004D01*
X173589435Y-77961085D01*
X173558200Y-77804055D01*
X173558200Y-77643945D01*
X173589435Y-77486915D01*
X173650705Y-77338996D01*
X173739659Y-77205867D01*
X173852867Y-77092659D01*
X173985996Y-77003705D01*
X174133915Y-76942435D01*
X174290945Y-76911200D01*
X174451055Y-76911200D01*
X174608085Y-76942435D01*
X174608085Y-76942435D01*
G37*
G36*
X164448085Y-76942435D02*
X164596004Y-77003705D01*
X164729133Y-77092659D01*
X164842341Y-77205867D01*
X164931295Y-77338996D01*
X164992565Y-77486915D01*
X165023800Y-77643945D01*
X165023800Y-77804055D01*
X164992565Y-77961085D01*
X164931295Y-78109004D01*
X164842341Y-78242133D01*
X164729133Y-78355341D01*
X164596004Y-78444295D01*
X164448085Y-78505565D01*
X164291055Y-78536800D01*
X164130945Y-78536800D01*
X163973915Y-78505565D01*
X163825996Y-78444295D01*
X163692867Y-78355341D01*
X163579659Y-78242133D01*
X163490705Y-78109004D01*
X163429435Y-77961085D01*
X163398200Y-77804055D01*
X163398200Y-77643945D01*
X163429435Y-77486915D01*
X163490705Y-77338996D01*
X163579659Y-77205867D01*
X163692867Y-77092659D01*
X163825996Y-77003705D01*
X163973915Y-76942435D01*
X164130945Y-76911200D01*
X164291055Y-76911200D01*
X164448085Y-76942435D01*
X164448085Y-76942435D01*
G37*
G36*
X160313787Y-75742510D02*
X160474160Y-75791160D01*
X160474162Y-75791161D01*
X160621966Y-75870163D01*
X160751517Y-75976483D01*
X160857837Y-76106034D01*
X160936839Y-76253838D01*
X160936840Y-76253840D01*
X160985490Y-76414213D01*
X161001916Y-76581000D01*
X160985490Y-76747787D01*
X160936840Y-76908160D01*
X160936839Y-76908162D01*
X160857837Y-77055966D01*
X160751517Y-77185517D01*
X160621966Y-77291837D01*
X160474162Y-77370839D01*
X160474160Y-77370840D01*
X160313787Y-77419490D01*
X160188794Y-77431800D01*
X160105206Y-77431800D01*
X159980213Y-77419490D01*
X159819840Y-77370840D01*
X159819838Y-77370839D01*
X159672034Y-77291837D01*
X159542483Y-77185517D01*
X159436163Y-77055966D01*
X159357161Y-76908162D01*
X159357160Y-76908160D01*
X159308510Y-76747787D01*
X159292084Y-76581000D01*
X159308510Y-76414213D01*
X159357160Y-76253840D01*
X159357161Y-76253838D01*
X159436163Y-76106034D01*
X159542483Y-75976483D01*
X159672034Y-75870163D01*
X159819838Y-75791161D01*
X159819840Y-75791160D01*
X159980213Y-75742510D01*
X160105206Y-75730200D01*
X160188794Y-75730200D01*
X160313787Y-75742510D01*
X160313787Y-75742510D01*
G37*
G36*
X152693787Y-75742510D02*
X152854160Y-75791160D01*
X152854162Y-75791161D01*
X153001966Y-75870163D01*
X153131517Y-75976483D01*
X153237837Y-76106034D01*
X153316839Y-76253838D01*
X153316840Y-76253840D01*
X153365490Y-76414213D01*
X153381916Y-76581000D01*
X153365490Y-76747787D01*
X153316840Y-76908160D01*
X153316839Y-76908162D01*
X153237837Y-77055966D01*
X153131517Y-77185517D01*
X153001966Y-77291837D01*
X152854162Y-77370839D01*
X152854160Y-77370840D01*
X152693787Y-77419490D01*
X152568794Y-77431800D01*
X152485206Y-77431800D01*
X152360213Y-77419490D01*
X152199840Y-77370840D01*
X152199838Y-77370839D01*
X152052034Y-77291837D01*
X151922483Y-77185517D01*
X151816163Y-77055966D01*
X151737161Y-76908162D01*
X151737160Y-76908160D01*
X151688510Y-76747787D01*
X151672084Y-76581000D01*
X151688510Y-76414213D01*
X151737160Y-76253840D01*
X151737161Y-76253838D01*
X151816163Y-76106034D01*
X151922483Y-75976483D01*
X152052034Y-75870163D01*
X152199838Y-75791161D01*
X152199840Y-75791160D01*
X152360213Y-75742510D01*
X152485206Y-75730200D01*
X152568794Y-75730200D01*
X152693787Y-75742510D01*
X152693787Y-75742510D01*
G37*
G36*
X164448085Y-74402435D02*
X164596004Y-74463705D01*
X164729133Y-74552659D01*
X164842341Y-74665867D01*
X164931295Y-74798996D01*
X164992565Y-74946915D01*
X165023800Y-75103945D01*
X165023800Y-75264055D01*
X164992565Y-75421085D01*
X164931295Y-75569004D01*
X164842341Y-75702133D01*
X164729133Y-75815341D01*
X164596004Y-75904295D01*
X164448085Y-75965565D01*
X164291055Y-75996800D01*
X164130945Y-75996800D01*
X163973915Y-75965565D01*
X163825996Y-75904295D01*
X163692867Y-75815341D01*
X163579659Y-75702133D01*
X163490705Y-75569004D01*
X163429435Y-75421085D01*
X163398200Y-75264055D01*
X163398200Y-75103945D01*
X163429435Y-74946915D01*
X163490705Y-74798996D01*
X163579659Y-74665867D01*
X163692867Y-74552659D01*
X163825996Y-74463705D01*
X163973915Y-74402435D01*
X164130945Y-74371200D01*
X164291055Y-74371200D01*
X164448085Y-74402435D01*
X164448085Y-74402435D01*
G37*
G36*
X153377800Y-74891800D02*
X151676200Y-74891800D01*
X151676200Y-73190200D01*
X153377800Y-73190200D01*
X153377800Y-74891800D01*
X153377800Y-74891800D01*
G37*
G36*
X160313787Y-73202510D02*
X160474160Y-73251160D01*
X160474162Y-73251161D01*
X160621966Y-73330163D01*
X160751517Y-73436483D01*
X160857837Y-73566034D01*
X160936839Y-73713838D01*
X160936840Y-73713840D01*
X160985490Y-73874213D01*
X161001916Y-74041000D01*
X160985490Y-74207787D01*
X160936840Y-74368160D01*
X160936839Y-74368162D01*
X160857837Y-74515966D01*
X160751517Y-74645517D01*
X160621966Y-74751837D01*
X160474162Y-74830839D01*
X160474160Y-74830840D01*
X160313787Y-74879490D01*
X160188794Y-74891800D01*
X160105206Y-74891800D01*
X159980213Y-74879490D01*
X159819840Y-74830840D01*
X159819838Y-74830839D01*
X159672034Y-74751837D01*
X159542483Y-74645517D01*
X159436163Y-74515966D01*
X159357161Y-74368162D01*
X159357160Y-74368160D01*
X159308510Y-74207787D01*
X159292084Y-74041000D01*
X159308510Y-73874213D01*
X159357160Y-73713840D01*
X159357161Y-73713838D01*
X159436163Y-73566034D01*
X159542483Y-73436483D01*
X159672034Y-73330163D01*
X159819838Y-73251161D01*
X159819840Y-73251160D01*
X159980213Y-73202510D01*
X160105206Y-73190200D01*
X160188794Y-73190200D01*
X160313787Y-73202510D01*
X160313787Y-73202510D01*
G37*
G36*
X164448085Y-71862435D02*
X164596004Y-71923705D01*
X164729133Y-72012659D01*
X164842341Y-72125867D01*
X164931295Y-72258996D01*
X164992565Y-72406915D01*
X165023800Y-72563945D01*
X165023800Y-72724055D01*
X164992565Y-72881085D01*
X164931295Y-73029004D01*
X164842341Y-73162133D01*
X164729133Y-73275341D01*
X164596004Y-73364295D01*
X164448085Y-73425565D01*
X164291055Y-73456800D01*
X164130945Y-73456800D01*
X163973915Y-73425565D01*
X163825996Y-73364295D01*
X163692867Y-73275341D01*
X163579659Y-73162133D01*
X163490705Y-73029004D01*
X163429435Y-72881085D01*
X163398200Y-72724055D01*
X163398200Y-72563945D01*
X163429435Y-72406915D01*
X163490705Y-72258996D01*
X163579659Y-72125867D01*
X163692867Y-72012659D01*
X163825996Y-71923705D01*
X163973915Y-71862435D01*
X164130945Y-71831200D01*
X164291055Y-71831200D01*
X164448085Y-71862435D01*
X164448085Y-71862435D01*
G37*
G36*
X142925800Y-67170800D02*
X137744200Y-67170800D01*
X137744200Y-65799200D01*
X142925800Y-65799200D01*
X142925800Y-67170800D01*
X142925800Y-67170800D01*
G37*
M02*
