G04 #@! TF.GenerationSoftware,KiCad,Pcbnew,(5.0.1)-4*
G04 #@! TF.CreationDate,2018-11-25T14:20:29+01:00*
G04 #@! TF.ProjectId,LoRa Environmental Sensors,4C6F526120456E7669726F6E6D656E74,01*
G04 #@! TF.SameCoordinates,Original*
G04 #@! TF.FileFunction,Legend,Top*
G04 #@! TF.FilePolarity,Positive*
%FSLAX46Y46*%
G04 Gerber Fmt 4.6, Leading zero omitted, Abs format (unit mm)*
G04 Created by KiCad (PCBNEW (5.0.1)-4) date 25.11.2018 14:20:29*
%MOMM*%
%LPD*%
G01*
G04 APERTURE LIST*
%ADD10C,0.120000*%
%ADD11C,0.150000*%
%ADD12C,0.100000*%
G04 APERTURE END LIST*
D10*
G04 #@! TO.C,U2*
X157337000Y-72711000D02*
G75*
G02X155337000Y-72711000I-1000000J0D01*
G01*
X155337000Y-72711000D02*
X153687000Y-72711000D01*
X153687000Y-72711000D02*
X153687000Y-82991000D01*
X153687000Y-82991000D02*
X158987000Y-82991000D01*
X158987000Y-82991000D02*
X158987000Y-72711000D01*
X158987000Y-72711000D02*
X157337000Y-72711000D01*
X151197000Y-72651000D02*
X151197000Y-83051000D01*
X151197000Y-83051000D02*
X161477000Y-83051000D01*
X161477000Y-83051000D02*
X161477000Y-72651000D01*
X161477000Y-72651000D02*
X151197000Y-72651000D01*
D11*
G04 #@! TO.C,U1*
X175641000Y-67564000D02*
X175641000Y-87884000D01*
X162941000Y-87884000D02*
X162941000Y-67564000D01*
X162941000Y-87884000D02*
X175641000Y-87884000D01*
X175641000Y-67564000D02*
X162941000Y-67564000D01*
D12*
G04 #@! TO.C,U3*
X132977000Y-85844000D02*
X132977000Y-77724000D01*
X149217000Y-71724000D02*
X149217000Y-69604000D01*
X149217000Y-69604000D02*
X149047000Y-69604000D01*
X149217000Y-85844000D02*
X149217000Y-83724000D01*
X149217000Y-85844000D02*
X149047000Y-85844000D01*
X132977000Y-71724000D02*
X132977000Y-69604000D01*
X132977000Y-69604000D02*
X133147000Y-69604000D01*
G04 #@! TO.C,U2*
D11*
X155575095Y-71163380D02*
X155575095Y-71972904D01*
X155622714Y-72068142D01*
X155670333Y-72115761D01*
X155765571Y-72163380D01*
X155956047Y-72163380D01*
X156051285Y-72115761D01*
X156098904Y-72068142D01*
X156146523Y-71972904D01*
X156146523Y-71163380D01*
X156575095Y-71258619D02*
X156622714Y-71211000D01*
X156717952Y-71163380D01*
X156956047Y-71163380D01*
X157051285Y-71211000D01*
X157098904Y-71258619D01*
X157146523Y-71353857D01*
X157146523Y-71449095D01*
X157098904Y-71591952D01*
X156527476Y-72163380D01*
X157146523Y-72163380D01*
G04 #@! TO.C,U1*
X164719095Y-68286380D02*
X164719095Y-69095904D01*
X164766714Y-69191142D01*
X164814333Y-69238761D01*
X164909571Y-69286380D01*
X165100047Y-69286380D01*
X165195285Y-69238761D01*
X165242904Y-69191142D01*
X165290523Y-69095904D01*
X165290523Y-68286380D01*
X166290523Y-69286380D02*
X165719095Y-69286380D01*
X166004809Y-69286380D02*
X166004809Y-68286380D01*
X165909571Y-68429238D01*
X165814333Y-68524476D01*
X165719095Y-68572095D01*
G04 #@! TO.C,U3*
X133945380Y-82549904D02*
X134754904Y-82549904D01*
X134850142Y-82502285D01*
X134897761Y-82454666D01*
X134945380Y-82359428D01*
X134945380Y-82168952D01*
X134897761Y-82073714D01*
X134850142Y-82026095D01*
X134754904Y-81978476D01*
X133945380Y-81978476D01*
X133945380Y-81597523D02*
X133945380Y-80978476D01*
X134326333Y-81311809D01*
X134326333Y-81168952D01*
X134373952Y-81073714D01*
X134421571Y-81026095D01*
X134516809Y-80978476D01*
X134754904Y-80978476D01*
X134850142Y-81026095D01*
X134897761Y-81073714D01*
X134945380Y-81168952D01*
X134945380Y-81454666D01*
X134897761Y-81549904D01*
X134850142Y-81597523D01*
G04 #@! TD*
M02*
