G04 #@! TF.GenerationSoftware,KiCad,Pcbnew,(5.0.1)-4*
G04 #@! TF.CreationDate,2018-11-25T14:20:29+01:00*
G04 #@! TF.ProjectId,LoRa Environmental Sensors,4C6F526120456E7669726F6E6D656E74,01*
G04 #@! TF.SameCoordinates,Original*
G04 #@! TF.FileFunction,Copper,L1,Top,Signal*
G04 #@! TF.FilePolarity,Positive*
%FSLAX46Y46*%
G04 Gerber Fmt 4.6, Leading zero omitted, Abs format (unit mm)*
G04 Created by KiCad (PCBNEW (5.0.1)-4) date 25.11.2018 14:20:29*
%MOMM*%
%LPD*%
G01*
G04 APERTURE LIST*
G04 #@! TA.AperFunction,ComponentPad*
%ADD10R,1.600000X1.600000*%
G04 #@! TD*
G04 #@! TA.AperFunction,ComponentPad*
%ADD11O,1.600000X1.600000*%
G04 #@! TD*
G04 #@! TA.AperFunction,ComponentPad*
%ADD12C,1.524000*%
G04 #@! TD*
G04 #@! TA.AperFunction,SMDPad,CuDef*
%ADD13R,1.000000X2.000000*%
G04 #@! TD*
G04 #@! TA.AperFunction,ViaPad*
%ADD14C,0.762000*%
G04 #@! TD*
G04 #@! TA.AperFunction,Conductor*
%ADD15C,0.762000*%
G04 #@! TD*
G04 #@! TA.AperFunction,Conductor*
%ADD16C,0.254000*%
G04 #@! TD*
G04 APERTURE END LIST*
D10*
G04 #@! TO.P,U2,1*
G04 #@! TO.N,Net-(U2-Pad1)*
X152527000Y-74041000D03*
D11*
G04 #@! TO.P,U2,5*
G04 #@! TO.N,/MISO*
X160147000Y-81661000D03*
G04 #@! TO.P,U2,2*
G04 #@! TO.N,/CS*
X152527000Y-76581000D03*
G04 #@! TO.P,U2,6*
G04 #@! TO.N,/MOSI*
X160147000Y-79121000D03*
G04 #@! TO.P,U2,3*
G04 #@! TO.N,/NSS*
X152527000Y-79121000D03*
G04 #@! TO.P,U2,7*
G04 #@! TO.N,/SCK*
X160147000Y-76581000D03*
G04 #@! TO.P,U2,4*
G04 #@! TO.N,GND*
X152527000Y-81661000D03*
G04 #@! TO.P,U2,8*
G04 #@! TO.N,VCC*
X160147000Y-74041000D03*
G04 #@! TD*
D12*
G04 #@! TO.P,U1,1*
G04 #@! TO.N,GND*
X174371000Y-85344000D03*
G04 #@! TO.P,U1,2*
G04 #@! TO.N,VCC*
X174371000Y-82804000D03*
G04 #@! TO.P,U1,3*
G04 #@! TO.N,Net-(U1-Pad3)*
X174371000Y-80264000D03*
G04 #@! TO.P,U1,4*
G04 #@! TO.N,Net-(U1-Pad4)*
X174371000Y-77724000D03*
G04 #@! TO.P,U1,6*
G04 #@! TO.N,VCC*
X164211000Y-82804000D03*
G04 #@! TO.P,U1,7*
G04 #@! TO.N,/SCK*
X164211000Y-80264000D03*
G04 #@! TO.P,U1,8*
G04 #@! TO.N,/MISO*
X164211000Y-77724000D03*
G04 #@! TO.P,U1,9*
G04 #@! TO.N,/MOSI*
X164211000Y-75184000D03*
G04 #@! TO.P,U1,10*
G04 #@! TO.N,/CS*
X164211000Y-72644000D03*
G04 #@! TO.P,U1,5*
G04 #@! TO.N,GND*
X164211000Y-85344000D03*
G04 #@! TD*
D13*
G04 #@! TO.P,U3,1*
G04 #@! TO.N,GND*
X134097000Y-85724000D03*
G04 #@! TO.P,U3,2*
G04 #@! TO.N,/MISO*
X136097000Y-85724000D03*
G04 #@! TO.P,U3,3*
G04 #@! TO.N,/MOSI*
X138097000Y-85724000D03*
G04 #@! TO.P,U3,4*
G04 #@! TO.N,/SCK*
X140097000Y-85724000D03*
G04 #@! TO.P,U3,5*
G04 #@! TO.N,/NSS*
X142097000Y-85724000D03*
G04 #@! TO.P,U3,6*
G04 #@! TO.N,Net-(U3-Pad6)*
X144097000Y-85724000D03*
G04 #@! TO.P,U3,7*
G04 #@! TO.N,Net-(U3-Pad7)*
X146097000Y-85724000D03*
G04 #@! TO.P,U3,8*
G04 #@! TO.N,GND*
X148097000Y-85724000D03*
G04 #@! TO.P,U3,9*
G04 #@! TO.N,Net-(U3-Pad9)*
X148097000Y-69724000D03*
G04 #@! TO.P,U3,10*
G04 #@! TO.N,GND*
X146097000Y-69724000D03*
G04 #@! TO.P,U3,11*
G04 #@! TO.N,Net-(U3-Pad11)*
X144097000Y-69724000D03*
G04 #@! TO.P,U3,12*
G04 #@! TO.N,Net-(U3-Pad12)*
X142097000Y-69724000D03*
G04 #@! TO.P,U3,13*
G04 #@! TO.N,VCC*
X140097000Y-69724000D03*
G04 #@! TO.P,U3,14*
G04 #@! TO.N,Net-(U3-Pad14)*
X138097000Y-69724000D03*
G04 #@! TO.P,U3,15*
G04 #@! TO.N,Net-(U3-Pad15)*
X136097000Y-69724000D03*
G04 #@! TO.P,U3,16*
G04 #@! TO.N,Net-(U3-Pad16)*
X134097000Y-69724000D03*
G04 #@! TD*
D14*
G04 #@! TO.N,GND*
X134112000Y-83439000D03*
X148082000Y-83185000D03*
X146050000Y-71882000D03*
X151130000Y-69850000D03*
X160020000Y-69850000D03*
G04 #@! TO.N,VCC*
X140208000Y-67945000D03*
G04 #@! TD*
D15*
G04 #@! TO.N,GND*
X134097000Y-85724000D02*
X134097000Y-83454000D01*
X134097000Y-83454000D02*
X134112000Y-83439000D01*
X148097000Y-85724000D02*
X148097000Y-83200000D01*
X148097000Y-83200000D02*
X148082000Y-83185000D01*
X146097000Y-69724000D02*
X146097000Y-71835000D01*
X146097000Y-71835000D02*
X146050000Y-71882000D01*
X151130000Y-69850000D02*
X160020000Y-69850000D01*
G04 #@! TO.N,VCC*
X140097000Y-69724000D02*
X140097000Y-68056000D01*
X140097000Y-68056000D02*
X140208000Y-67945000D01*
D16*
G04 #@! TO.N,/MISO*
X164084000Y-77724000D02*
X164211000Y-77724000D01*
X160147000Y-81661000D02*
X164084000Y-77724000D01*
X136097000Y-86224000D02*
X136097000Y-85724000D01*
X138502031Y-88629031D02*
X136097000Y-86224000D01*
X153178969Y-88629031D02*
X138502031Y-88629031D01*
X160147000Y-81661000D02*
X153178969Y-88629031D01*
G04 #@! TO.N,/SCK*
X140097000Y-86224000D02*
X140097000Y-85724000D01*
X141486011Y-87613011D02*
X140097000Y-86224000D01*
X149114989Y-87613011D02*
X141486011Y-87613011D01*
X160147000Y-76581000D02*
X149114989Y-87613011D01*
G04 #@! TO.N,/MOSI*
X164084000Y-75184000D02*
X164211000Y-75184000D01*
X160147000Y-79121000D02*
X164084000Y-75184000D01*
X138097000Y-86224000D02*
X138097000Y-85724000D01*
X139994021Y-88121021D02*
X138097000Y-86224000D01*
X151146979Y-88121021D02*
X139994021Y-88121021D01*
X160147000Y-79121000D02*
X151146979Y-88121021D01*
G04 #@! TO.N,/CS*
X156464000Y-72644000D02*
X164211000Y-72644000D01*
X152527000Y-76581000D02*
X156464000Y-72644000D01*
G04 #@! TO.N,/NSS*
X152527000Y-79121000D02*
X150241000Y-81407000D01*
X142097000Y-86978000D02*
X142097000Y-85724000D01*
X142224001Y-87105001D02*
X142097000Y-86978000D01*
X150241000Y-85765802D02*
X148901801Y-87105001D01*
X148901801Y-87105001D02*
X142224001Y-87105001D01*
X150241000Y-81407000D02*
X150241000Y-85765802D01*
G04 #@! TD*
M02*
