G04 #@! TF.GenerationSoftware,KiCad,Pcbnew,(5.0.1)-4*
G04 #@! TF.CreationDate,2018-11-25T15:42:11+01:00*
G04 #@! TF.ProjectId,LoRa Environmental Sensors,4C6F526120456E7669726F6E6D656E74,01*
G04 #@! TF.SameCoordinates,Original*
G04 #@! TF.FileFunction,Legend,Bot*
G04 #@! TF.FilePolarity,Positive*
%FSLAX46Y46*%
G04 Gerber Fmt 4.6, Leading zero omitted, Abs format (unit mm)*
G04 Created by KiCad (PCBNEW (5.0.1)-4) date 25.11.2018 15:42:11*
%MOMM*%
%LPD*%
G01*
G04 APERTURE LIST*
%ADD10C,0.031750*%
%ADD11C,0.100000*%
%ADD12C,0.010000*%
%ADD13C,0.150000*%
G04 APERTURE END LIST*
D10*
X176616934Y-76109285D02*
X176616934Y-76351190D01*
X176108934Y-76351190D01*
X176616934Y-75867380D02*
X176592744Y-75915761D01*
X176568553Y-75939952D01*
X176520172Y-75964142D01*
X176375029Y-75964142D01*
X176326648Y-75939952D01*
X176302458Y-75915761D01*
X176278267Y-75867380D01*
X176278267Y-75794809D01*
X176302458Y-75746428D01*
X176326648Y-75722238D01*
X176375029Y-75698047D01*
X176520172Y-75698047D01*
X176568553Y-75722238D01*
X176592744Y-75746428D01*
X176616934Y-75794809D01*
X176616934Y-75867380D01*
X176616934Y-75190047D02*
X176375029Y-75359380D01*
X176616934Y-75480333D02*
X176108934Y-75480333D01*
X176108934Y-75286809D01*
X176133125Y-75238428D01*
X176157315Y-75214238D01*
X176205696Y-75190047D01*
X176278267Y-75190047D01*
X176326648Y-75214238D01*
X176350839Y-75238428D01*
X176375029Y-75286809D01*
X176375029Y-75480333D01*
X176616934Y-74754619D02*
X176350839Y-74754619D01*
X176302458Y-74778809D01*
X176278267Y-74827190D01*
X176278267Y-74923952D01*
X176302458Y-74972333D01*
X176592744Y-74754619D02*
X176616934Y-74803000D01*
X176616934Y-74923952D01*
X176592744Y-74972333D01*
X176544363Y-74996523D01*
X176495982Y-74996523D01*
X176447601Y-74972333D01*
X176423410Y-74923952D01*
X176423410Y-74803000D01*
X176399220Y-74754619D01*
X176350839Y-74125666D02*
X176350839Y-73956333D01*
X176616934Y-73883761D02*
X176616934Y-74125666D01*
X176108934Y-74125666D01*
X176108934Y-73883761D01*
X176278267Y-73666047D02*
X176616934Y-73666047D01*
X176326648Y-73666047D02*
X176302458Y-73641857D01*
X176278267Y-73593476D01*
X176278267Y-73520904D01*
X176302458Y-73472523D01*
X176350839Y-73448333D01*
X176616934Y-73448333D01*
X176278267Y-73254809D02*
X176616934Y-73133857D01*
X176278267Y-73012904D01*
X176616934Y-72819380D02*
X176278267Y-72819380D01*
X176108934Y-72819380D02*
X176133125Y-72843571D01*
X176157315Y-72819380D01*
X176133125Y-72795190D01*
X176108934Y-72819380D01*
X176157315Y-72819380D01*
X176616934Y-72577476D02*
X176278267Y-72577476D01*
X176375029Y-72577476D02*
X176326648Y-72553285D01*
X176302458Y-72529095D01*
X176278267Y-72480714D01*
X176278267Y-72432333D01*
X176616934Y-72190428D02*
X176592744Y-72238809D01*
X176568553Y-72263000D01*
X176520172Y-72287190D01*
X176375029Y-72287190D01*
X176326648Y-72263000D01*
X176302458Y-72238809D01*
X176278267Y-72190428D01*
X176278267Y-72117857D01*
X176302458Y-72069476D01*
X176326648Y-72045285D01*
X176375029Y-72021095D01*
X176520172Y-72021095D01*
X176568553Y-72045285D01*
X176592744Y-72069476D01*
X176616934Y-72117857D01*
X176616934Y-72190428D01*
X176278267Y-71803380D02*
X176616934Y-71803380D01*
X176326648Y-71803380D02*
X176302458Y-71779190D01*
X176278267Y-71730809D01*
X176278267Y-71658238D01*
X176302458Y-71609857D01*
X176350839Y-71585666D01*
X176616934Y-71585666D01*
X176616934Y-71343761D02*
X176278267Y-71343761D01*
X176326648Y-71343761D02*
X176302458Y-71319571D01*
X176278267Y-71271190D01*
X176278267Y-71198619D01*
X176302458Y-71150238D01*
X176350839Y-71126047D01*
X176616934Y-71126047D01*
X176350839Y-71126047D02*
X176302458Y-71101857D01*
X176278267Y-71053476D01*
X176278267Y-70980904D01*
X176302458Y-70932523D01*
X176350839Y-70908333D01*
X176616934Y-70908333D01*
X176592744Y-70472904D02*
X176616934Y-70521285D01*
X176616934Y-70618047D01*
X176592744Y-70666428D01*
X176544363Y-70690619D01*
X176350839Y-70690619D01*
X176302458Y-70666428D01*
X176278267Y-70618047D01*
X176278267Y-70521285D01*
X176302458Y-70472904D01*
X176350839Y-70448714D01*
X176399220Y-70448714D01*
X176447601Y-70690619D01*
X176278267Y-70231000D02*
X176616934Y-70231000D01*
X176326648Y-70231000D02*
X176302458Y-70206809D01*
X176278267Y-70158428D01*
X176278267Y-70085857D01*
X176302458Y-70037476D01*
X176350839Y-70013285D01*
X176616934Y-70013285D01*
X176278267Y-69843952D02*
X176278267Y-69650428D01*
X176108934Y-69771380D02*
X176544363Y-69771380D01*
X176592744Y-69747190D01*
X176616934Y-69698809D01*
X176616934Y-69650428D01*
X176616934Y-69263380D02*
X176350839Y-69263380D01*
X176302458Y-69287571D01*
X176278267Y-69335952D01*
X176278267Y-69432714D01*
X176302458Y-69481095D01*
X176592744Y-69263380D02*
X176616934Y-69311761D01*
X176616934Y-69432714D01*
X176592744Y-69481095D01*
X176544363Y-69505285D01*
X176495982Y-69505285D01*
X176447601Y-69481095D01*
X176423410Y-69432714D01*
X176423410Y-69311761D01*
X176399220Y-69263380D01*
X176616934Y-68948904D02*
X176592744Y-68997285D01*
X176544363Y-69021476D01*
X176108934Y-69021476D01*
X176592744Y-68392523D02*
X176616934Y-68319952D01*
X176616934Y-68199000D01*
X176592744Y-68150619D01*
X176568553Y-68126428D01*
X176520172Y-68102238D01*
X176471791Y-68102238D01*
X176423410Y-68126428D01*
X176399220Y-68150619D01*
X176375029Y-68199000D01*
X176350839Y-68295761D01*
X176326648Y-68344142D01*
X176302458Y-68368333D01*
X176254077Y-68392523D01*
X176205696Y-68392523D01*
X176157315Y-68368333D01*
X176133125Y-68344142D01*
X176108934Y-68295761D01*
X176108934Y-68174809D01*
X176133125Y-68102238D01*
X176592744Y-67691000D02*
X176616934Y-67739380D01*
X176616934Y-67836142D01*
X176592744Y-67884523D01*
X176544363Y-67908714D01*
X176350839Y-67908714D01*
X176302458Y-67884523D01*
X176278267Y-67836142D01*
X176278267Y-67739380D01*
X176302458Y-67691000D01*
X176350839Y-67666809D01*
X176399220Y-67666809D01*
X176447601Y-67908714D01*
X176278267Y-67449095D02*
X176616934Y-67449095D01*
X176326648Y-67449095D02*
X176302458Y-67424904D01*
X176278267Y-67376523D01*
X176278267Y-67303952D01*
X176302458Y-67255571D01*
X176350839Y-67231380D01*
X176616934Y-67231380D01*
X176592744Y-67013666D02*
X176616934Y-66965285D01*
X176616934Y-66868523D01*
X176592744Y-66820142D01*
X176544363Y-66795952D01*
X176520172Y-66795952D01*
X176471791Y-66820142D01*
X176447601Y-66868523D01*
X176447601Y-66941095D01*
X176423410Y-66989476D01*
X176375029Y-67013666D01*
X176350839Y-67013666D01*
X176302458Y-66989476D01*
X176278267Y-66941095D01*
X176278267Y-66868523D01*
X176302458Y-66820142D01*
X176616934Y-66505666D02*
X176592744Y-66554047D01*
X176568553Y-66578238D01*
X176520172Y-66602428D01*
X176375029Y-66602428D01*
X176326648Y-66578238D01*
X176302458Y-66554047D01*
X176278267Y-66505666D01*
X176278267Y-66433095D01*
X176302458Y-66384714D01*
X176326648Y-66360523D01*
X176375029Y-66336333D01*
X176520172Y-66336333D01*
X176568553Y-66360523D01*
X176592744Y-66384714D01*
X176616934Y-66433095D01*
X176616934Y-66505666D01*
X176616934Y-66118619D02*
X176278267Y-66118619D01*
X176375029Y-66118619D02*
X176326648Y-66094428D01*
X176302458Y-66070238D01*
X176278267Y-66021857D01*
X176278267Y-65973476D01*
X176592744Y-65828333D02*
X176616934Y-65779952D01*
X176616934Y-65683190D01*
X176592744Y-65634809D01*
X176544363Y-65610619D01*
X176520172Y-65610619D01*
X176471791Y-65634809D01*
X176447601Y-65683190D01*
X176447601Y-65755761D01*
X176423410Y-65804142D01*
X176375029Y-65828333D01*
X176350839Y-65828333D01*
X176302458Y-65804142D01*
X176278267Y-65755761D01*
X176278267Y-65683190D01*
X176302458Y-65634809D01*
X177410684Y-72045285D02*
X177168779Y-72214619D01*
X177410684Y-72335571D02*
X176902684Y-72335571D01*
X176902684Y-72142047D01*
X176926875Y-72093666D01*
X176951065Y-72069476D01*
X176999446Y-72045285D01*
X177072017Y-72045285D01*
X177120398Y-72069476D01*
X177144589Y-72093666D01*
X177168779Y-72142047D01*
X177168779Y-72335571D01*
X177386494Y-71634047D02*
X177410684Y-71682428D01*
X177410684Y-71779190D01*
X177386494Y-71827571D01*
X177338113Y-71851761D01*
X177144589Y-71851761D01*
X177096208Y-71827571D01*
X177072017Y-71779190D01*
X177072017Y-71682428D01*
X177096208Y-71634047D01*
X177144589Y-71609857D01*
X177192970Y-71609857D01*
X177241351Y-71851761D01*
X177072017Y-71440523D02*
X177410684Y-71319571D01*
X177072017Y-71198619D01*
X177362303Y-71005095D02*
X177386494Y-70980904D01*
X177410684Y-71005095D01*
X177386494Y-71029285D01*
X177362303Y-71005095D01*
X177410684Y-71005095D01*
X176902684Y-70279380D02*
X176902684Y-70231000D01*
X176926875Y-70182619D01*
X176951065Y-70158428D01*
X176999446Y-70134238D01*
X177096208Y-70110047D01*
X177217160Y-70110047D01*
X177313922Y-70134238D01*
X177362303Y-70158428D01*
X177386494Y-70182619D01*
X177410684Y-70231000D01*
X177410684Y-70279380D01*
X177386494Y-70327761D01*
X177362303Y-70351952D01*
X177313922Y-70376142D01*
X177217160Y-70400333D01*
X177096208Y-70400333D01*
X176999446Y-70376142D01*
X176951065Y-70351952D01*
X176926875Y-70327761D01*
X176902684Y-70279380D01*
X177410684Y-69626238D02*
X177410684Y-69916523D01*
X177410684Y-69771380D02*
X176902684Y-69771380D01*
X176975255Y-69819761D01*
X177023636Y-69868142D01*
X177047827Y-69916523D01*
D11*
G04 #@! TO.C,BT1*
X131781464Y-83474601D02*
G75*
G03X131785000Y-71470000I-7806464J6004601D01*
G01*
X131768470Y-83473354D02*
G75*
G03X132755000Y-86810000I1716530J-1306646D01*
G01*
X136705000Y-88250000D02*
X132755000Y-86810000D01*
X147875000Y-86170000D02*
X145795000Y-88250000D01*
X147875000Y-68770000D02*
X147875000Y-86170000D01*
X147875000Y-68770000D02*
X145795000Y-66690000D01*
X136705000Y-66690000D02*
X132755000Y-68130000D01*
X132746831Y-68144756D02*
G75*
G03X131785000Y-71470000I738169J-2015244D01*
G01*
X145795000Y-88250000D02*
X143335000Y-88250000D01*
X137335000Y-88250000D02*
X136705000Y-88250000D01*
X145795000Y-66690000D02*
X143335000Y-66690000D01*
X137335000Y-66690000D02*
X136705000Y-66690000D01*
D12*
G04 #@! TO.C,G\002A\002A\002A*
G36*
X167522409Y-68122473D02*
X167546754Y-68149317D01*
X167595727Y-68194823D01*
X167676400Y-68264984D01*
X167795843Y-68365791D01*
X167961127Y-68503237D01*
X168179322Y-68683312D01*
X168457499Y-68912008D01*
X168802730Y-69195318D01*
X169058580Y-69405151D01*
X170281600Y-70408102D01*
X174777400Y-70408800D01*
X174777400Y-65844132D01*
X174726600Y-65844034D01*
X174726600Y-65964098D01*
X174726600Y-70281501D01*
X173647249Y-69202150D01*
X172567898Y-68122800D01*
X174726600Y-65964098D01*
X174726600Y-65844034D01*
X172529500Y-65839779D01*
X172504553Y-65839731D01*
X172504553Y-65938400D01*
X172957592Y-65938704D01*
X173377526Y-65939573D01*
X173753828Y-65940942D01*
X174075972Y-65942745D01*
X174333431Y-65944917D01*
X174515678Y-65947393D01*
X174612185Y-65950108D01*
X174625000Y-65951553D01*
X174590497Y-65989359D01*
X174492922Y-66089873D01*
X174341174Y-66244092D01*
X174144154Y-66443012D01*
X173910762Y-66677630D01*
X173649897Y-66938943D01*
X173570451Y-67018358D01*
X172515903Y-68072010D01*
X172515903Y-68173589D01*
X173570945Y-69227694D01*
X174625987Y-70281800D01*
X172656993Y-70307200D01*
X172213828Y-70312381D01*
X171798014Y-70316220D01*
X171421573Y-70318681D01*
X171096529Y-70319730D01*
X170834905Y-70319331D01*
X170648725Y-70317451D01*
X170550012Y-70314054D01*
X170542643Y-70313304D01*
X170504437Y-70304378D01*
X170486848Y-70284772D01*
X170496394Y-70246789D01*
X170539591Y-70182733D01*
X170622957Y-70084905D01*
X170753007Y-69945608D01*
X170936259Y-69757146D01*
X171179229Y-69511820D01*
X171456595Y-69233798D01*
X172515903Y-68173589D01*
X172515903Y-68072010D01*
X170384107Y-65938400D01*
X172504553Y-65938400D01*
X172504553Y-65839731D01*
X170307000Y-65835475D01*
X170307000Y-65964707D01*
X171373800Y-67030600D01*
X171642747Y-67300170D01*
X171886812Y-67546438D01*
X172097128Y-67760326D01*
X172264828Y-67932756D01*
X172381046Y-68054650D01*
X172436915Y-68116930D01*
X172440600Y-68122800D01*
X172406042Y-68163959D01*
X172308282Y-68267655D01*
X172156186Y-68424809D01*
X171958619Y-68626343D01*
X171724450Y-68863179D01*
X171462544Y-69126239D01*
X171373800Y-69215000D01*
X170307000Y-70280892D01*
X170307000Y-65964707D01*
X170307000Y-65835475D01*
X170281600Y-65835425D01*
X170230373Y-65877396D01*
X170230373Y-65989200D01*
X170235875Y-66038250D01*
X170240976Y-66178406D01*
X170245549Y-66399173D01*
X170249469Y-66690057D01*
X170252607Y-67040563D01*
X170254836Y-67440196D01*
X170256030Y-67878464D01*
X170256200Y-68122800D01*
X170255493Y-68577286D01*
X170253475Y-68998701D01*
X170250297Y-69376549D01*
X170246108Y-69700336D01*
X170241061Y-69959569D01*
X170235307Y-70143753D01*
X170228997Y-70242392D01*
X170225479Y-70256400D01*
X170175503Y-70225955D01*
X170066959Y-70144296D01*
X169918752Y-70025933D01*
X169831779Y-69954271D01*
X169674085Y-69823675D01*
X169457882Y-69645554D01*
X169203432Y-69436553D01*
X168930995Y-69213315D01*
X168681400Y-69009272D01*
X168430626Y-68803699D01*
X168198579Y-68611933D01*
X167999967Y-68446252D01*
X167849501Y-68318931D01*
X167761890Y-68242247D01*
X167757578Y-68238238D01*
X167621157Y-68110074D01*
X168220421Y-67621137D01*
X168479342Y-67409453D01*
X168784521Y-67159273D01*
X169103948Y-66896877D01*
X169405609Y-66648546D01*
X169512116Y-66560700D01*
X169737141Y-66376122D01*
X169934565Y-66216363D01*
X170091350Y-66091794D01*
X170194458Y-66012792D01*
X170230373Y-65989200D01*
X170230373Y-65877396D01*
X168910000Y-66959210D01*
X168589499Y-67221864D01*
X168294497Y-67463738D01*
X168034065Y-67677385D01*
X167817276Y-67855356D01*
X167653203Y-67990205D01*
X167550919Y-68074483D01*
X167519321Y-68100809D01*
X167515621Y-68108301D01*
X167522409Y-68122473D01*
X167522409Y-68122473D01*
G37*
X167522409Y-68122473D02*
X167546754Y-68149317D01*
X167595727Y-68194823D01*
X167676400Y-68264984D01*
X167795843Y-68365791D01*
X167961127Y-68503237D01*
X168179322Y-68683312D01*
X168457499Y-68912008D01*
X168802730Y-69195318D01*
X169058580Y-69405151D01*
X170281600Y-70408102D01*
X174777400Y-70408800D01*
X174777400Y-65844132D01*
X174726600Y-65844034D01*
X174726600Y-65964098D01*
X174726600Y-70281501D01*
X173647249Y-69202150D01*
X172567898Y-68122800D01*
X174726600Y-65964098D01*
X174726600Y-65844034D01*
X172529500Y-65839779D01*
X172504553Y-65839731D01*
X172504553Y-65938400D01*
X172957592Y-65938704D01*
X173377526Y-65939573D01*
X173753828Y-65940942D01*
X174075972Y-65942745D01*
X174333431Y-65944917D01*
X174515678Y-65947393D01*
X174612185Y-65950108D01*
X174625000Y-65951553D01*
X174590497Y-65989359D01*
X174492922Y-66089873D01*
X174341174Y-66244092D01*
X174144154Y-66443012D01*
X173910762Y-66677630D01*
X173649897Y-66938943D01*
X173570451Y-67018358D01*
X172515903Y-68072010D01*
X172515903Y-68173589D01*
X173570945Y-69227694D01*
X174625987Y-70281800D01*
X172656993Y-70307200D01*
X172213828Y-70312381D01*
X171798014Y-70316220D01*
X171421573Y-70318681D01*
X171096529Y-70319730D01*
X170834905Y-70319331D01*
X170648725Y-70317451D01*
X170550012Y-70314054D01*
X170542643Y-70313304D01*
X170504437Y-70304378D01*
X170486848Y-70284772D01*
X170496394Y-70246789D01*
X170539591Y-70182733D01*
X170622957Y-70084905D01*
X170753007Y-69945608D01*
X170936259Y-69757146D01*
X171179229Y-69511820D01*
X171456595Y-69233798D01*
X172515903Y-68173589D01*
X172515903Y-68072010D01*
X170384107Y-65938400D01*
X172504553Y-65938400D01*
X172504553Y-65839731D01*
X170307000Y-65835475D01*
X170307000Y-65964707D01*
X171373800Y-67030600D01*
X171642747Y-67300170D01*
X171886812Y-67546438D01*
X172097128Y-67760326D01*
X172264828Y-67932756D01*
X172381046Y-68054650D01*
X172436915Y-68116930D01*
X172440600Y-68122800D01*
X172406042Y-68163959D01*
X172308282Y-68267655D01*
X172156186Y-68424809D01*
X171958619Y-68626343D01*
X171724450Y-68863179D01*
X171462544Y-69126239D01*
X171373800Y-69215000D01*
X170307000Y-70280892D01*
X170307000Y-65964707D01*
X170307000Y-65835475D01*
X170281600Y-65835425D01*
X170230373Y-65877396D01*
X170230373Y-65989200D01*
X170235875Y-66038250D01*
X170240976Y-66178406D01*
X170245549Y-66399173D01*
X170249469Y-66690057D01*
X170252607Y-67040563D01*
X170254836Y-67440196D01*
X170256030Y-67878464D01*
X170256200Y-68122800D01*
X170255493Y-68577286D01*
X170253475Y-68998701D01*
X170250297Y-69376549D01*
X170246108Y-69700336D01*
X170241061Y-69959569D01*
X170235307Y-70143753D01*
X170228997Y-70242392D01*
X170225479Y-70256400D01*
X170175503Y-70225955D01*
X170066959Y-70144296D01*
X169918752Y-70025933D01*
X169831779Y-69954271D01*
X169674085Y-69823675D01*
X169457882Y-69645554D01*
X169203432Y-69436553D01*
X168930995Y-69213315D01*
X168681400Y-69009272D01*
X168430626Y-68803699D01*
X168198579Y-68611933D01*
X167999967Y-68446252D01*
X167849501Y-68318931D01*
X167761890Y-68242247D01*
X167757578Y-68238238D01*
X167621157Y-68110074D01*
X168220421Y-67621137D01*
X168479342Y-67409453D01*
X168784521Y-67159273D01*
X169103948Y-66896877D01*
X169405609Y-66648546D01*
X169512116Y-66560700D01*
X169737141Y-66376122D01*
X169934565Y-66216363D01*
X170091350Y-66091794D01*
X170194458Y-66012792D01*
X170230373Y-65989200D01*
X170230373Y-65877396D01*
X168910000Y-66959210D01*
X168589499Y-67221864D01*
X168294497Y-67463738D01*
X168034065Y-67677385D01*
X167817276Y-67855356D01*
X167653203Y-67990205D01*
X167550919Y-68074483D01*
X167519321Y-68100809D01*
X167515621Y-68108301D01*
X167522409Y-68122473D01*
G04 #@! TO.C,BT1*
D13*
X146867571Y-76557285D02*
X146915190Y-76700142D01*
X146962809Y-76747761D01*
X147058047Y-76795380D01*
X147200904Y-76795380D01*
X147296142Y-76747761D01*
X147343761Y-76700142D01*
X147391380Y-76604904D01*
X147391380Y-76223952D01*
X146391380Y-76223952D01*
X146391380Y-76557285D01*
X146439000Y-76652523D01*
X146486619Y-76700142D01*
X146581857Y-76747761D01*
X146677095Y-76747761D01*
X146772333Y-76700142D01*
X146819952Y-76652523D01*
X146867571Y-76557285D01*
X146867571Y-76223952D01*
X146391380Y-77081095D02*
X146391380Y-77652523D01*
X147391380Y-77366809D02*
X146391380Y-77366809D01*
X147391380Y-78509666D02*
X147391380Y-77938238D01*
X147391380Y-78223952D02*
X146391380Y-78223952D01*
X146534238Y-78128714D01*
X146629476Y-78033476D01*
X146677095Y-77938238D01*
G04 #@! TD*
M02*
