G04 #@! TF.GenerationSoftware,KiCad,Pcbnew,(5.0.1)-4*
G04 #@! TF.CreationDate,2018-11-25T15:42:11+01:00*
G04 #@! TF.ProjectId,LoRa Environmental Sensors,4C6F526120456E7669726F6E6D656E74,01*
G04 #@! TF.SameCoordinates,Original*
G04 #@! TF.FileFunction,Legend,Top*
G04 #@! TF.FilePolarity,Positive*
%FSLAX46Y46*%
G04 Gerber Fmt 4.6, Leading zero omitted, Abs format (unit mm)*
G04 Created by KiCad (PCBNEW (5.0.1)-4) date 25.11.2018 15:42:11*
%MOMM*%
%LPD*%
G01*
G04 APERTURE LIST*
%ADD10C,0.250000*%
%ADD11C,0.120000*%
%ADD12C,0.150000*%
%ADD13C,0.100000*%
G04 APERTURE END LIST*
D10*
X132246666Y-83740476D02*
X132246666Y-83264285D01*
X132532380Y-83835714D02*
X131532380Y-83502380D01*
X132532380Y-83169047D01*
X132532380Y-82835714D02*
X131532380Y-82835714D01*
X132532380Y-82264285D01*
X131532380Y-82264285D01*
X132246666Y-81835714D02*
X132246666Y-81359523D01*
X132532380Y-81930952D02*
X131532380Y-81597619D01*
X132532380Y-81264285D01*
D11*
G04 #@! TO.C,U2*
X155337000Y-83118000D02*
G75*
G02X157337000Y-83118000I1000000J0D01*
G01*
X157337000Y-83118000D02*
X158987000Y-83118000D01*
X158987000Y-83118000D02*
X158987000Y-72838000D01*
X158987000Y-72838000D02*
X153687000Y-72838000D01*
X153687000Y-72838000D02*
X153687000Y-83118000D01*
X153687000Y-83118000D02*
X155337000Y-83118000D01*
X161477000Y-83178000D02*
X161477000Y-72778000D01*
X161477000Y-72778000D02*
X151197000Y-72778000D01*
X151197000Y-72778000D02*
X151197000Y-83178000D01*
X151197000Y-83178000D02*
X161477000Y-83178000D01*
D12*
G04 #@! TO.C,U1*
X162941000Y-87884000D02*
X162941000Y-67564000D01*
X175641000Y-67564000D02*
X175641000Y-87884000D01*
X175641000Y-67564000D02*
X162941000Y-67564000D01*
X162941000Y-87884000D02*
X175641000Y-87884000D01*
D13*
G04 #@! TO.C,U3*
X147439000Y-69477000D02*
X147439000Y-77597000D01*
X131199000Y-83597000D02*
X131199000Y-85717000D01*
X131199000Y-85717000D02*
X131369000Y-85717000D01*
X131199000Y-69477000D02*
X131199000Y-71597000D01*
X131199000Y-69477000D02*
X131369000Y-69477000D01*
X147439000Y-83597000D02*
X147439000Y-85717000D01*
X147439000Y-85717000D02*
X147269000Y-85717000D01*
G04 #@! TO.C,U2*
D12*
X155575095Y-83570380D02*
X155575095Y-84379904D01*
X155622714Y-84475142D01*
X155670333Y-84522761D01*
X155765571Y-84570380D01*
X155956047Y-84570380D01*
X156051285Y-84522761D01*
X156098904Y-84475142D01*
X156146523Y-84379904D01*
X156146523Y-83570380D01*
X156575095Y-83665619D02*
X156622714Y-83618000D01*
X156717952Y-83570380D01*
X156956047Y-83570380D01*
X157051285Y-83618000D01*
X157098904Y-83665619D01*
X157146523Y-83760857D01*
X157146523Y-83856095D01*
X157098904Y-83998952D01*
X156527476Y-84570380D01*
X157146523Y-84570380D01*
G04 #@! TO.C,U1*
X172339095Y-86066380D02*
X172339095Y-86875904D01*
X172386714Y-86971142D01*
X172434333Y-87018761D01*
X172529571Y-87066380D01*
X172720047Y-87066380D01*
X172815285Y-87018761D01*
X172862904Y-86971142D01*
X172910523Y-86875904D01*
X172910523Y-86066380D01*
X173910523Y-87066380D02*
X173339095Y-87066380D01*
X173624809Y-87066380D02*
X173624809Y-86066380D01*
X173529571Y-86209238D01*
X173434333Y-86304476D01*
X173339095Y-86352095D01*
G04 #@! TO.C,U3*
X145375380Y-74294904D02*
X146184904Y-74294904D01*
X146280142Y-74247285D01*
X146327761Y-74199666D01*
X146375380Y-74104428D01*
X146375380Y-73913952D01*
X146327761Y-73818714D01*
X146280142Y-73771095D01*
X146184904Y-73723476D01*
X145375380Y-73723476D01*
X145375380Y-73342523D02*
X145375380Y-72723476D01*
X145756333Y-73056809D01*
X145756333Y-72913952D01*
X145803952Y-72818714D01*
X145851571Y-72771095D01*
X145946809Y-72723476D01*
X146184904Y-72723476D01*
X146280142Y-72771095D01*
X146327761Y-72818714D01*
X146375380Y-72913952D01*
X146375380Y-73199666D01*
X146327761Y-73294904D01*
X146280142Y-73342523D01*
G04 #@! TD*
M02*
