M48
;DRILL file {KiCad (5.0.1)-4} date 25.11.2018 14:20:39
;FORMAT={-:-/ absolute / inch / decimal}
FMAT,2
INCH,TZ
T1C0.0150
T2C0.0300
T3C0.0315
%
G90
G05
M72
T1
X5.28Y-3.285
X5.52Y-2.675
X5.75Y-2.83
X5.83Y-3.275
X5.95Y-2.75
X6.3Y-2.75
T2
X6.465Y-2.86
X6.465Y-2.96
X6.465Y-3.06
X6.465Y-3.16
X6.465Y-3.26
X6.465Y-3.36
X6.865Y-3.06
X6.865Y-3.16
X6.865Y-3.26
X6.865Y-3.36
T3
X6.005Y-2.915
X6.005Y-3.015
X6.005Y-3.115
X6.005Y-3.215
X6.305Y-2.915
X6.305Y-3.015
X6.305Y-3.115
X6.305Y-3.215
T0
M30
