G04 #@! TF.GenerationSoftware,KiCad,Pcbnew,(5.0.1)-4*
G04 #@! TF.CreationDate,2018-11-25T14:20:29+01:00*
G04 #@! TF.ProjectId,LoRa Environmental Sensors,4C6F526120456E7669726F6E6D656E74,01*
G04 #@! TF.SameCoordinates,Original*
G04 #@! TF.FileFunction,Copper,L2,Bot,Signal*
G04 #@! TF.FilePolarity,Positive*
%FSLAX46Y46*%
G04 Gerber Fmt 4.6, Leading zero omitted, Abs format (unit mm)*
G04 Created by KiCad (PCBNEW (5.0.1)-4) date 25.11.2018 14:20:29*
%MOMM*%
%LPD*%
G01*
G04 APERTURE LIST*
G04 #@! TA.AperFunction,ComponentPad*
%ADD10R,1.600000X1.600000*%
G04 #@! TD*
G04 #@! TA.AperFunction,ComponentPad*
%ADD11O,1.600000X1.600000*%
G04 #@! TD*
G04 #@! TA.AperFunction,ComponentPad*
%ADD12C,1.524000*%
G04 #@! TD*
G04 #@! TA.AperFunction,SMDPad,CuDef*
%ADD13R,3.960000X3.960000*%
G04 #@! TD*
G04 #@! TA.AperFunction,SMDPad,CuDef*
%ADD14R,5.080000X1.270000*%
G04 #@! TD*
G04 #@! TA.AperFunction,ViaPad*
%ADD15C,0.762000*%
G04 #@! TD*
G04 #@! TA.AperFunction,Conductor*
%ADD16C,0.254000*%
G04 #@! TD*
G04 #@! TA.AperFunction,Conductor*
%ADD17C,0.762000*%
G04 #@! TD*
G04 APERTURE END LIST*
D10*
G04 #@! TO.P,U2,1*
G04 #@! TO.N,Net-(U2-Pad1)*
X152527000Y-74041000D03*
D11*
G04 #@! TO.P,U2,5*
G04 #@! TO.N,/MISO*
X160147000Y-81661000D03*
G04 #@! TO.P,U2,2*
G04 #@! TO.N,/CS*
X152527000Y-76581000D03*
G04 #@! TO.P,U2,6*
G04 #@! TO.N,/MOSI*
X160147000Y-79121000D03*
G04 #@! TO.P,U2,3*
G04 #@! TO.N,/NSS*
X152527000Y-79121000D03*
G04 #@! TO.P,U2,7*
G04 #@! TO.N,/SCK*
X160147000Y-76581000D03*
G04 #@! TO.P,U2,4*
G04 #@! TO.N,GND*
X152527000Y-81661000D03*
G04 #@! TO.P,U2,8*
G04 #@! TO.N,VCC*
X160147000Y-74041000D03*
G04 #@! TD*
D12*
G04 #@! TO.P,U1,1*
G04 #@! TO.N,GND*
X174371000Y-85344000D03*
G04 #@! TO.P,U1,2*
G04 #@! TO.N,VCC*
X174371000Y-82804000D03*
G04 #@! TO.P,U1,3*
G04 #@! TO.N,Net-(U1-Pad3)*
X174371000Y-80264000D03*
G04 #@! TO.P,U1,4*
G04 #@! TO.N,Net-(U1-Pad4)*
X174371000Y-77724000D03*
G04 #@! TO.P,U1,6*
G04 #@! TO.N,VCC*
X164211000Y-82804000D03*
G04 #@! TO.P,U1,7*
G04 #@! TO.N,/SCK*
X164211000Y-80264000D03*
G04 #@! TO.P,U1,8*
G04 #@! TO.N,/MISO*
X164211000Y-77724000D03*
G04 #@! TO.P,U1,9*
G04 #@! TO.N,/MOSI*
X164211000Y-75184000D03*
G04 #@! TO.P,U1,10*
G04 #@! TO.N,/CS*
X164211000Y-72644000D03*
G04 #@! TO.P,U1,5*
G04 #@! TO.N,GND*
X164211000Y-85344000D03*
G04 #@! TD*
D13*
G04 #@! TO.P,BT1,2*
G04 #@! TO.N,GND*
X140335000Y-77470000D03*
D14*
G04 #@! TO.P,BT1,1*
G04 #@! TO.N,VCC*
X140335000Y-66485000D03*
X140335000Y-88455000D03*
G04 #@! TD*
D15*
G04 #@! TO.N,GND*
X134112000Y-83439000D03*
X148082000Y-83185000D03*
X146050000Y-71882000D03*
X151130000Y-69850000D03*
X160020000Y-69850000D03*
G04 #@! TO.N,VCC*
X140208000Y-67945000D03*
G04 #@! TD*
D16*
G04 #@! TO.N,VCC*
X143129000Y-66485000D02*
X140335000Y-66485000D01*
D17*
X158560000Y-88455000D02*
X164211000Y-82804000D01*
X140335000Y-88455000D02*
X158560000Y-88455000D01*
X164211000Y-82804000D02*
X174371000Y-82804000D01*
X140208000Y-66612000D02*
X140335000Y-66485000D01*
X140208000Y-67945000D02*
X140208000Y-66612000D01*
X152591000Y-66485000D02*
X160147000Y-74041000D01*
X140335000Y-66485000D02*
X152591000Y-66485000D01*
D16*
G04 #@! TO.N,/SCK*
X160782000Y-76835000D02*
X160782000Y-76581000D01*
X164211000Y-80264000D02*
X160782000Y-76835000D01*
G04 #@! TD*
G04 #@! TO.N,GND*
G36*
X137147560Y-65850000D02*
X137147560Y-67120000D01*
X137196843Y-67367765D01*
X137337191Y-67577809D01*
X137547235Y-67718157D01*
X137795000Y-67767440D01*
X139192000Y-67767440D01*
X139192000Y-68147095D01*
X139231045Y-68241360D01*
X139250949Y-68341422D01*
X139307629Y-68426250D01*
X139346676Y-68520518D01*
X139418825Y-68592667D01*
X139475505Y-68677495D01*
X139560334Y-68734176D01*
X139632482Y-68806324D01*
X139726748Y-68845370D01*
X139811577Y-68902051D01*
X139911641Y-68921955D01*
X140005905Y-68961000D01*
X140107935Y-68961000D01*
X140208000Y-68980904D01*
X140308064Y-68961000D01*
X140410095Y-68961000D01*
X140504359Y-68921955D01*
X140604422Y-68902051D01*
X140689250Y-68845371D01*
X140783518Y-68806324D01*
X140855667Y-68734175D01*
X140940495Y-68677495D01*
X140997176Y-68592666D01*
X141069324Y-68520518D01*
X141108370Y-68426252D01*
X141165051Y-68341423D01*
X141184955Y-68241359D01*
X141224000Y-68147095D01*
X141224000Y-67767440D01*
X142875000Y-67767440D01*
X143122765Y-67718157D01*
X143332809Y-67577809D01*
X143384132Y-67501000D01*
X152170160Y-67501000D01*
X158688246Y-74019087D01*
X158683887Y-74041000D01*
X158795260Y-74600909D01*
X159112423Y-75075577D01*
X159464758Y-75311000D01*
X159112423Y-75546423D01*
X158795260Y-76021091D01*
X158683887Y-76581000D01*
X158795260Y-77140909D01*
X159112423Y-77615577D01*
X159464758Y-77851000D01*
X159112423Y-78086423D01*
X158795260Y-78561091D01*
X158683887Y-79121000D01*
X158795260Y-79680909D01*
X159112423Y-80155577D01*
X159464758Y-80391000D01*
X159112423Y-80626423D01*
X158795260Y-81101091D01*
X158683887Y-81661000D01*
X158795260Y-82220909D01*
X159112423Y-82695577D01*
X159587091Y-83012740D01*
X160005667Y-83096000D01*
X160288333Y-83096000D01*
X160706909Y-83012740D01*
X161181577Y-82695577D01*
X161498740Y-82220909D01*
X161610113Y-81661000D01*
X161498740Y-81101091D01*
X161181577Y-80626423D01*
X160829242Y-80391000D01*
X161181577Y-80155577D01*
X161498740Y-79680909D01*
X161610113Y-79121000D01*
X161515694Y-78646324D01*
X162826152Y-79956782D01*
X162814000Y-79986119D01*
X162814000Y-80541881D01*
X163026680Y-81055337D01*
X163419663Y-81448320D01*
X163626513Y-81534000D01*
X163419663Y-81619680D01*
X163026680Y-82012663D01*
X162814000Y-82526119D01*
X162814000Y-82764159D01*
X158139160Y-87439000D01*
X143384132Y-87439000D01*
X143332809Y-87362191D01*
X143122765Y-87221843D01*
X142875000Y-87172560D01*
X137795000Y-87172560D01*
X137547235Y-87221843D01*
X137337191Y-87362191D01*
X137196843Y-87572235D01*
X137147560Y-87820000D01*
X137147560Y-89090000D01*
X137179187Y-89249000D01*
X128878000Y-89249000D01*
X128878000Y-82010039D01*
X151135096Y-82010039D01*
X151295959Y-82398423D01*
X151671866Y-82813389D01*
X152177959Y-83052914D01*
X152400000Y-82931629D01*
X152400000Y-81788000D01*
X152654000Y-81788000D01*
X152654000Y-82931629D01*
X152876041Y-83052914D01*
X153382134Y-82813389D01*
X153758041Y-82398423D01*
X153918904Y-82010039D01*
X153796915Y-81788000D01*
X152654000Y-81788000D01*
X152400000Y-81788000D01*
X151257085Y-81788000D01*
X151135096Y-82010039D01*
X128878000Y-82010039D01*
X128878000Y-77755750D01*
X137720000Y-77755750D01*
X137720000Y-79576309D01*
X137816673Y-79809698D01*
X137995301Y-79988327D01*
X138228690Y-80085000D01*
X140049250Y-80085000D01*
X140208000Y-79926250D01*
X140208000Y-77597000D01*
X140462000Y-77597000D01*
X140462000Y-79926250D01*
X140620750Y-80085000D01*
X142441310Y-80085000D01*
X142674699Y-79988327D01*
X142853327Y-79809698D01*
X142950000Y-79576309D01*
X142950000Y-77755750D01*
X142791250Y-77597000D01*
X140462000Y-77597000D01*
X140208000Y-77597000D01*
X137878750Y-77597000D01*
X137720000Y-77755750D01*
X128878000Y-77755750D01*
X128878000Y-75363691D01*
X137720000Y-75363691D01*
X137720000Y-77184250D01*
X137878750Y-77343000D01*
X140208000Y-77343000D01*
X140208000Y-75013750D01*
X140462000Y-75013750D01*
X140462000Y-77343000D01*
X142791250Y-77343000D01*
X142950000Y-77184250D01*
X142950000Y-76581000D01*
X151063887Y-76581000D01*
X151175260Y-77140909D01*
X151492423Y-77615577D01*
X151844758Y-77851000D01*
X151492423Y-78086423D01*
X151175260Y-78561091D01*
X151063887Y-79121000D01*
X151175260Y-79680909D01*
X151492423Y-80155577D01*
X151876108Y-80411947D01*
X151671866Y-80508611D01*
X151295959Y-80923577D01*
X151135096Y-81311961D01*
X151257085Y-81534000D01*
X152400000Y-81534000D01*
X152400000Y-81514000D01*
X152654000Y-81514000D01*
X152654000Y-81534000D01*
X153796915Y-81534000D01*
X153918904Y-81311961D01*
X153758041Y-80923577D01*
X153382134Y-80508611D01*
X153177892Y-80411947D01*
X153561577Y-80155577D01*
X153878740Y-79680909D01*
X153990113Y-79121000D01*
X153878740Y-78561091D01*
X153561577Y-78086423D01*
X153209242Y-77851000D01*
X153561577Y-77615577D01*
X153878740Y-77140909D01*
X153990113Y-76581000D01*
X153878740Y-76021091D01*
X153561577Y-75546423D01*
X153440894Y-75465785D01*
X153574765Y-75439157D01*
X153784809Y-75298809D01*
X153925157Y-75088765D01*
X153974440Y-74841000D01*
X153974440Y-73241000D01*
X153925157Y-72993235D01*
X153784809Y-72783191D01*
X153574765Y-72642843D01*
X153327000Y-72593560D01*
X151727000Y-72593560D01*
X151479235Y-72642843D01*
X151269191Y-72783191D01*
X151128843Y-72993235D01*
X151079560Y-73241000D01*
X151079560Y-74841000D01*
X151128843Y-75088765D01*
X151269191Y-75298809D01*
X151479235Y-75439157D01*
X151613106Y-75465785D01*
X151492423Y-75546423D01*
X151175260Y-76021091D01*
X151063887Y-76581000D01*
X142950000Y-76581000D01*
X142950000Y-75363691D01*
X142853327Y-75130302D01*
X142674699Y-74951673D01*
X142441310Y-74855000D01*
X140620750Y-74855000D01*
X140462000Y-75013750D01*
X140208000Y-75013750D01*
X140049250Y-74855000D01*
X138228690Y-74855000D01*
X137995301Y-74951673D01*
X137816673Y-75130302D01*
X137720000Y-75363691D01*
X128878000Y-75363691D01*
X128878000Y-65719000D01*
X137173617Y-65719000D01*
X137147560Y-65850000D01*
X137147560Y-65850000D01*
G37*
X137147560Y-65850000D02*
X137147560Y-67120000D01*
X137196843Y-67367765D01*
X137337191Y-67577809D01*
X137547235Y-67718157D01*
X137795000Y-67767440D01*
X139192000Y-67767440D01*
X139192000Y-68147095D01*
X139231045Y-68241360D01*
X139250949Y-68341422D01*
X139307629Y-68426250D01*
X139346676Y-68520518D01*
X139418825Y-68592667D01*
X139475505Y-68677495D01*
X139560334Y-68734176D01*
X139632482Y-68806324D01*
X139726748Y-68845370D01*
X139811577Y-68902051D01*
X139911641Y-68921955D01*
X140005905Y-68961000D01*
X140107935Y-68961000D01*
X140208000Y-68980904D01*
X140308064Y-68961000D01*
X140410095Y-68961000D01*
X140504359Y-68921955D01*
X140604422Y-68902051D01*
X140689250Y-68845371D01*
X140783518Y-68806324D01*
X140855667Y-68734175D01*
X140940495Y-68677495D01*
X140997176Y-68592666D01*
X141069324Y-68520518D01*
X141108370Y-68426252D01*
X141165051Y-68341423D01*
X141184955Y-68241359D01*
X141224000Y-68147095D01*
X141224000Y-67767440D01*
X142875000Y-67767440D01*
X143122765Y-67718157D01*
X143332809Y-67577809D01*
X143384132Y-67501000D01*
X152170160Y-67501000D01*
X158688246Y-74019087D01*
X158683887Y-74041000D01*
X158795260Y-74600909D01*
X159112423Y-75075577D01*
X159464758Y-75311000D01*
X159112423Y-75546423D01*
X158795260Y-76021091D01*
X158683887Y-76581000D01*
X158795260Y-77140909D01*
X159112423Y-77615577D01*
X159464758Y-77851000D01*
X159112423Y-78086423D01*
X158795260Y-78561091D01*
X158683887Y-79121000D01*
X158795260Y-79680909D01*
X159112423Y-80155577D01*
X159464758Y-80391000D01*
X159112423Y-80626423D01*
X158795260Y-81101091D01*
X158683887Y-81661000D01*
X158795260Y-82220909D01*
X159112423Y-82695577D01*
X159587091Y-83012740D01*
X160005667Y-83096000D01*
X160288333Y-83096000D01*
X160706909Y-83012740D01*
X161181577Y-82695577D01*
X161498740Y-82220909D01*
X161610113Y-81661000D01*
X161498740Y-81101091D01*
X161181577Y-80626423D01*
X160829242Y-80391000D01*
X161181577Y-80155577D01*
X161498740Y-79680909D01*
X161610113Y-79121000D01*
X161515694Y-78646324D01*
X162826152Y-79956782D01*
X162814000Y-79986119D01*
X162814000Y-80541881D01*
X163026680Y-81055337D01*
X163419663Y-81448320D01*
X163626513Y-81534000D01*
X163419663Y-81619680D01*
X163026680Y-82012663D01*
X162814000Y-82526119D01*
X162814000Y-82764159D01*
X158139160Y-87439000D01*
X143384132Y-87439000D01*
X143332809Y-87362191D01*
X143122765Y-87221843D01*
X142875000Y-87172560D01*
X137795000Y-87172560D01*
X137547235Y-87221843D01*
X137337191Y-87362191D01*
X137196843Y-87572235D01*
X137147560Y-87820000D01*
X137147560Y-89090000D01*
X137179187Y-89249000D01*
X128878000Y-89249000D01*
X128878000Y-82010039D01*
X151135096Y-82010039D01*
X151295959Y-82398423D01*
X151671866Y-82813389D01*
X152177959Y-83052914D01*
X152400000Y-82931629D01*
X152400000Y-81788000D01*
X152654000Y-81788000D01*
X152654000Y-82931629D01*
X152876041Y-83052914D01*
X153382134Y-82813389D01*
X153758041Y-82398423D01*
X153918904Y-82010039D01*
X153796915Y-81788000D01*
X152654000Y-81788000D01*
X152400000Y-81788000D01*
X151257085Y-81788000D01*
X151135096Y-82010039D01*
X128878000Y-82010039D01*
X128878000Y-77755750D01*
X137720000Y-77755750D01*
X137720000Y-79576309D01*
X137816673Y-79809698D01*
X137995301Y-79988327D01*
X138228690Y-80085000D01*
X140049250Y-80085000D01*
X140208000Y-79926250D01*
X140208000Y-77597000D01*
X140462000Y-77597000D01*
X140462000Y-79926250D01*
X140620750Y-80085000D01*
X142441310Y-80085000D01*
X142674699Y-79988327D01*
X142853327Y-79809698D01*
X142950000Y-79576309D01*
X142950000Y-77755750D01*
X142791250Y-77597000D01*
X140462000Y-77597000D01*
X140208000Y-77597000D01*
X137878750Y-77597000D01*
X137720000Y-77755750D01*
X128878000Y-77755750D01*
X128878000Y-75363691D01*
X137720000Y-75363691D01*
X137720000Y-77184250D01*
X137878750Y-77343000D01*
X140208000Y-77343000D01*
X140208000Y-75013750D01*
X140462000Y-75013750D01*
X140462000Y-77343000D01*
X142791250Y-77343000D01*
X142950000Y-77184250D01*
X142950000Y-76581000D01*
X151063887Y-76581000D01*
X151175260Y-77140909D01*
X151492423Y-77615577D01*
X151844758Y-77851000D01*
X151492423Y-78086423D01*
X151175260Y-78561091D01*
X151063887Y-79121000D01*
X151175260Y-79680909D01*
X151492423Y-80155577D01*
X151876108Y-80411947D01*
X151671866Y-80508611D01*
X151295959Y-80923577D01*
X151135096Y-81311961D01*
X151257085Y-81534000D01*
X152400000Y-81534000D01*
X152400000Y-81514000D01*
X152654000Y-81514000D01*
X152654000Y-81534000D01*
X153796915Y-81534000D01*
X153918904Y-81311961D01*
X153758041Y-80923577D01*
X153382134Y-80508611D01*
X153177892Y-80411947D01*
X153561577Y-80155577D01*
X153878740Y-79680909D01*
X153990113Y-79121000D01*
X153878740Y-78561091D01*
X153561577Y-78086423D01*
X153209242Y-77851000D01*
X153561577Y-77615577D01*
X153878740Y-77140909D01*
X153990113Y-76581000D01*
X153878740Y-76021091D01*
X153561577Y-75546423D01*
X153440894Y-75465785D01*
X153574765Y-75439157D01*
X153784809Y-75298809D01*
X153925157Y-75088765D01*
X153974440Y-74841000D01*
X153974440Y-73241000D01*
X153925157Y-72993235D01*
X153784809Y-72783191D01*
X153574765Y-72642843D01*
X153327000Y-72593560D01*
X151727000Y-72593560D01*
X151479235Y-72642843D01*
X151269191Y-72783191D01*
X151128843Y-72993235D01*
X151079560Y-73241000D01*
X151079560Y-74841000D01*
X151128843Y-75088765D01*
X151269191Y-75298809D01*
X151479235Y-75439157D01*
X151613106Y-75465785D01*
X151492423Y-75546423D01*
X151175260Y-76021091D01*
X151063887Y-76581000D01*
X142950000Y-76581000D01*
X142950000Y-75363691D01*
X142853327Y-75130302D01*
X142674699Y-74951673D01*
X142441310Y-74855000D01*
X140620750Y-74855000D01*
X140462000Y-75013750D01*
X140208000Y-75013750D01*
X140049250Y-74855000D01*
X138228690Y-74855000D01*
X137995301Y-74951673D01*
X137816673Y-75130302D01*
X137720000Y-75363691D01*
X128878000Y-75363691D01*
X128878000Y-65719000D01*
X137173617Y-65719000D01*
X137147560Y-65850000D01*
G36*
X177408001Y-89249000D02*
X159200446Y-89249000D01*
X159292495Y-89187495D01*
X159349180Y-89102660D01*
X162127627Y-86324213D01*
X163410392Y-86324213D01*
X163479857Y-86566397D01*
X164003302Y-86753144D01*
X164558368Y-86725362D01*
X164942143Y-86566397D01*
X165011608Y-86324213D01*
X173570392Y-86324213D01*
X173639857Y-86566397D01*
X174163302Y-86753144D01*
X174718368Y-86725362D01*
X175102143Y-86566397D01*
X175171608Y-86324213D01*
X174371000Y-85523605D01*
X173570392Y-86324213D01*
X165011608Y-86324213D01*
X164211000Y-85523605D01*
X163410392Y-86324213D01*
X162127627Y-86324213D01*
X162826341Y-85625499D01*
X162829638Y-85691368D01*
X162988603Y-86075143D01*
X163230787Y-86144608D01*
X164031395Y-85344000D01*
X164390605Y-85344000D01*
X165191213Y-86144608D01*
X165433397Y-86075143D01*
X165620144Y-85551698D01*
X165599353Y-85136302D01*
X172961856Y-85136302D01*
X172989638Y-85691368D01*
X173148603Y-86075143D01*
X173390787Y-86144608D01*
X174191395Y-85344000D01*
X174550605Y-85344000D01*
X175351213Y-86144608D01*
X175593397Y-86075143D01*
X175780144Y-85551698D01*
X175752362Y-84996632D01*
X175593397Y-84612857D01*
X175351213Y-84543392D01*
X174550605Y-85344000D01*
X174191395Y-85344000D01*
X173390787Y-84543392D01*
X173148603Y-84612857D01*
X172961856Y-85136302D01*
X165599353Y-85136302D01*
X165592362Y-84996632D01*
X165433397Y-84612857D01*
X165191213Y-84543392D01*
X164390605Y-85344000D01*
X164031395Y-85344000D01*
X164017253Y-85329858D01*
X164196858Y-85150253D01*
X164211000Y-85164395D01*
X165011608Y-84363787D01*
X164942143Y-84121603D01*
X164801607Y-84071465D01*
X165002337Y-83988320D01*
X165170657Y-83820000D01*
X173411343Y-83820000D01*
X173579663Y-83988320D01*
X173770647Y-84067428D01*
X173639857Y-84121603D01*
X173570392Y-84363787D01*
X174371000Y-85164395D01*
X175171608Y-84363787D01*
X175102143Y-84121603D01*
X174961607Y-84071465D01*
X175162337Y-83988320D01*
X175555320Y-83595337D01*
X175768000Y-83081881D01*
X175768000Y-82526119D01*
X175555320Y-82012663D01*
X175162337Y-81619680D01*
X174955487Y-81534000D01*
X175162337Y-81448320D01*
X175555320Y-81055337D01*
X175768000Y-80541881D01*
X175768000Y-79986119D01*
X175555320Y-79472663D01*
X175162337Y-79079680D01*
X174955487Y-78994000D01*
X175162337Y-78908320D01*
X175555320Y-78515337D01*
X175768000Y-78001881D01*
X175768000Y-77446119D01*
X175555320Y-76932663D01*
X175162337Y-76539680D01*
X174648881Y-76327000D01*
X174093119Y-76327000D01*
X173579663Y-76539680D01*
X173186680Y-76932663D01*
X172974000Y-77446119D01*
X172974000Y-78001881D01*
X173186680Y-78515337D01*
X173579663Y-78908320D01*
X173786513Y-78994000D01*
X173579663Y-79079680D01*
X173186680Y-79472663D01*
X172974000Y-79986119D01*
X172974000Y-80541881D01*
X173186680Y-81055337D01*
X173579663Y-81448320D01*
X173786513Y-81534000D01*
X173579663Y-81619680D01*
X173411343Y-81788000D01*
X165170657Y-81788000D01*
X165002337Y-81619680D01*
X164795487Y-81534000D01*
X165002337Y-81448320D01*
X165395320Y-81055337D01*
X165608000Y-80541881D01*
X165608000Y-79986119D01*
X165395320Y-79472663D01*
X165002337Y-79079680D01*
X164795487Y-78994000D01*
X165002337Y-78908320D01*
X165395320Y-78515337D01*
X165608000Y-78001881D01*
X165608000Y-77446119D01*
X165395320Y-76932663D01*
X165002337Y-76539680D01*
X164795487Y-76454000D01*
X165002337Y-76368320D01*
X165395320Y-75975337D01*
X165608000Y-75461881D01*
X165608000Y-74906119D01*
X165395320Y-74392663D01*
X165002337Y-73999680D01*
X164795487Y-73914000D01*
X165002337Y-73828320D01*
X165395320Y-73435337D01*
X165608000Y-72921881D01*
X165608000Y-72366119D01*
X165395320Y-71852663D01*
X165002337Y-71459680D01*
X164488881Y-71247000D01*
X163933119Y-71247000D01*
X163419663Y-71459680D01*
X163026680Y-71852663D01*
X162814000Y-72366119D01*
X162814000Y-72921881D01*
X163026680Y-73435337D01*
X163419663Y-73828320D01*
X163626513Y-73914000D01*
X163419663Y-73999680D01*
X163026680Y-74392663D01*
X162814000Y-74906119D01*
X162814000Y-75461881D01*
X163026680Y-75975337D01*
X163419663Y-76368320D01*
X163626513Y-76454000D01*
X163419663Y-76539680D01*
X163026680Y-76932663D01*
X162814000Y-77446119D01*
X162814000Y-77789370D01*
X161609369Y-76584739D01*
X161610113Y-76581000D01*
X161498740Y-76021091D01*
X161181577Y-75546423D01*
X160829242Y-75311000D01*
X161181577Y-75075577D01*
X161498740Y-74600909D01*
X161610113Y-74041000D01*
X161498740Y-73481091D01*
X161181577Y-73006423D01*
X160706909Y-72689260D01*
X160288333Y-72606000D01*
X160148841Y-72606000D01*
X153380180Y-65837340D01*
X153323495Y-65752505D01*
X153273351Y-65719000D01*
X177408000Y-65719000D01*
X177408001Y-89249000D01*
X177408001Y-89249000D01*
G37*
X177408001Y-89249000D02*
X159200446Y-89249000D01*
X159292495Y-89187495D01*
X159349180Y-89102660D01*
X162127627Y-86324213D01*
X163410392Y-86324213D01*
X163479857Y-86566397D01*
X164003302Y-86753144D01*
X164558368Y-86725362D01*
X164942143Y-86566397D01*
X165011608Y-86324213D01*
X173570392Y-86324213D01*
X173639857Y-86566397D01*
X174163302Y-86753144D01*
X174718368Y-86725362D01*
X175102143Y-86566397D01*
X175171608Y-86324213D01*
X174371000Y-85523605D01*
X173570392Y-86324213D01*
X165011608Y-86324213D01*
X164211000Y-85523605D01*
X163410392Y-86324213D01*
X162127627Y-86324213D01*
X162826341Y-85625499D01*
X162829638Y-85691368D01*
X162988603Y-86075143D01*
X163230787Y-86144608D01*
X164031395Y-85344000D01*
X164390605Y-85344000D01*
X165191213Y-86144608D01*
X165433397Y-86075143D01*
X165620144Y-85551698D01*
X165599353Y-85136302D01*
X172961856Y-85136302D01*
X172989638Y-85691368D01*
X173148603Y-86075143D01*
X173390787Y-86144608D01*
X174191395Y-85344000D01*
X174550605Y-85344000D01*
X175351213Y-86144608D01*
X175593397Y-86075143D01*
X175780144Y-85551698D01*
X175752362Y-84996632D01*
X175593397Y-84612857D01*
X175351213Y-84543392D01*
X174550605Y-85344000D01*
X174191395Y-85344000D01*
X173390787Y-84543392D01*
X173148603Y-84612857D01*
X172961856Y-85136302D01*
X165599353Y-85136302D01*
X165592362Y-84996632D01*
X165433397Y-84612857D01*
X165191213Y-84543392D01*
X164390605Y-85344000D01*
X164031395Y-85344000D01*
X164017253Y-85329858D01*
X164196858Y-85150253D01*
X164211000Y-85164395D01*
X165011608Y-84363787D01*
X164942143Y-84121603D01*
X164801607Y-84071465D01*
X165002337Y-83988320D01*
X165170657Y-83820000D01*
X173411343Y-83820000D01*
X173579663Y-83988320D01*
X173770647Y-84067428D01*
X173639857Y-84121603D01*
X173570392Y-84363787D01*
X174371000Y-85164395D01*
X175171608Y-84363787D01*
X175102143Y-84121603D01*
X174961607Y-84071465D01*
X175162337Y-83988320D01*
X175555320Y-83595337D01*
X175768000Y-83081881D01*
X175768000Y-82526119D01*
X175555320Y-82012663D01*
X175162337Y-81619680D01*
X174955487Y-81534000D01*
X175162337Y-81448320D01*
X175555320Y-81055337D01*
X175768000Y-80541881D01*
X175768000Y-79986119D01*
X175555320Y-79472663D01*
X175162337Y-79079680D01*
X174955487Y-78994000D01*
X175162337Y-78908320D01*
X175555320Y-78515337D01*
X175768000Y-78001881D01*
X175768000Y-77446119D01*
X175555320Y-76932663D01*
X175162337Y-76539680D01*
X174648881Y-76327000D01*
X174093119Y-76327000D01*
X173579663Y-76539680D01*
X173186680Y-76932663D01*
X172974000Y-77446119D01*
X172974000Y-78001881D01*
X173186680Y-78515337D01*
X173579663Y-78908320D01*
X173786513Y-78994000D01*
X173579663Y-79079680D01*
X173186680Y-79472663D01*
X172974000Y-79986119D01*
X172974000Y-80541881D01*
X173186680Y-81055337D01*
X173579663Y-81448320D01*
X173786513Y-81534000D01*
X173579663Y-81619680D01*
X173411343Y-81788000D01*
X165170657Y-81788000D01*
X165002337Y-81619680D01*
X164795487Y-81534000D01*
X165002337Y-81448320D01*
X165395320Y-81055337D01*
X165608000Y-80541881D01*
X165608000Y-79986119D01*
X165395320Y-79472663D01*
X165002337Y-79079680D01*
X164795487Y-78994000D01*
X165002337Y-78908320D01*
X165395320Y-78515337D01*
X165608000Y-78001881D01*
X165608000Y-77446119D01*
X165395320Y-76932663D01*
X165002337Y-76539680D01*
X164795487Y-76454000D01*
X165002337Y-76368320D01*
X165395320Y-75975337D01*
X165608000Y-75461881D01*
X165608000Y-74906119D01*
X165395320Y-74392663D01*
X165002337Y-73999680D01*
X164795487Y-73914000D01*
X165002337Y-73828320D01*
X165395320Y-73435337D01*
X165608000Y-72921881D01*
X165608000Y-72366119D01*
X165395320Y-71852663D01*
X165002337Y-71459680D01*
X164488881Y-71247000D01*
X163933119Y-71247000D01*
X163419663Y-71459680D01*
X163026680Y-71852663D01*
X162814000Y-72366119D01*
X162814000Y-72921881D01*
X163026680Y-73435337D01*
X163419663Y-73828320D01*
X163626513Y-73914000D01*
X163419663Y-73999680D01*
X163026680Y-74392663D01*
X162814000Y-74906119D01*
X162814000Y-75461881D01*
X163026680Y-75975337D01*
X163419663Y-76368320D01*
X163626513Y-76454000D01*
X163419663Y-76539680D01*
X163026680Y-76932663D01*
X162814000Y-77446119D01*
X162814000Y-77789370D01*
X161609369Y-76584739D01*
X161610113Y-76581000D01*
X161498740Y-76021091D01*
X161181577Y-75546423D01*
X160829242Y-75311000D01*
X161181577Y-75075577D01*
X161498740Y-74600909D01*
X161610113Y-74041000D01*
X161498740Y-73481091D01*
X161181577Y-73006423D01*
X160706909Y-72689260D01*
X160288333Y-72606000D01*
X160148841Y-72606000D01*
X153380180Y-65837340D01*
X153323495Y-65752505D01*
X153273351Y-65719000D01*
X177408000Y-65719000D01*
X177408001Y-89249000D01*
G04 #@! TD*
M02*
