%TF.GenerationSoftware,KiCad,Pcbnew,5.0.0+dfsg1-2*%
%TF.CreationDate,2018-11-25T17:27:35+01:00*%
%TF.ProjectId,LoRa Environmental Sensors,4C6F526120456E7669726F6E6D656E74,01*%
%TF.SameCoordinates,Original*%
%TF.FileFunction,Copper,L2,Bot,Signal*%
%TF.FilePolarity,Positive*%
%FSLAX46Y46*%
G04 Gerber Fmt 4.6, Leading zero omitted, Abs format (unit mm)*
G04 Created by KiCad (PCBNEW 5.0.0+dfsg1-2) date Sun Nov 25 17:27:35 2018*
%MOMM*%
%LPD*%
G01*
G04 APERTURE LIST*
%ADD10R,3.960000X3.960000*%
%ADD11R,5.080000X1.270000*%
%ADD12R,1.600000X1.600000*%
%ADD13O,1.600000X1.600000*%
%ADD14C,1.524000*%
%ADD15C,0.762000*%
%ADD16C,0.254000*%
%ADD17C,0.762000*%
G04 APERTURE END LIST*
D10*
X140335000Y-77470000D03*
D11*
X140335000Y-66485000D03*
X140335000Y-88455000D03*
D12*
X160147000Y-81788000D03*
D13*
X152527000Y-74168000D03*
X160147000Y-79248000D03*
X152527000Y-76708000D03*
X160147000Y-76708000D03*
X152527000Y-79248000D03*
X160147000Y-74168000D03*
X152527000Y-81788000D03*
D14*
X164211000Y-70104000D03*
X164211000Y-72644000D03*
X164211000Y-75184000D03*
X164211000Y-77724000D03*
X174371000Y-72644000D03*
X174371000Y-75184000D03*
X174371000Y-77724000D03*
X174371000Y-80264000D03*
X174371000Y-82804000D03*
X174371000Y-70104000D03*
D15*
X134366000Y-83058000D03*
X132334000Y-72263000D03*
X149606000Y-69596000D03*
X152019000Y-85852000D03*
X148336000Y-82550000D03*
X168148000Y-78486000D03*
X168148000Y-82804000D03*
X140335000Y-87122000D03*
D16*
X143129000Y-66485000D02*
X140335000Y-66485000D01*
D17*
X174371000Y-72644000D02*
X164211000Y-72644000D01*
X140335000Y-67882000D02*
X140335000Y-66485000D01*
X145097000Y-72644000D02*
X140335000Y-67882000D01*
X164211000Y-72644000D02*
X145097000Y-72644000D01*
X145860000Y-88455000D02*
X152527000Y-81788000D01*
X140335000Y-88455000D02*
X145860000Y-88455000D01*
X140335000Y-87122000D02*
X140335000Y-88455000D01*
D16*
X173609001Y-75945999D02*
X174371000Y-75184000D01*
X168782991Y-80772009D02*
X173609001Y-75945999D01*
X164000575Y-80772009D02*
X168782991Y-80772009D01*
X163657567Y-80429001D02*
X164000575Y-80772009D01*
X153708001Y-80429001D02*
X163657567Y-80429001D01*
X152527000Y-79248000D02*
X153708001Y-80429001D01*
G36*
X177408001Y-89249000D02*
X146500446Y-89249000D01*
X146592495Y-89187495D01*
X146649180Y-89102660D01*
X152528841Y-83223000D01*
X152668333Y-83223000D01*
X153086909Y-83139740D01*
X153561577Y-82822577D01*
X153878740Y-82347909D01*
X153990113Y-81788000D01*
X153878740Y-81228091D01*
X153853957Y-81191001D01*
X158699560Y-81191001D01*
X158699560Y-82588000D01*
X158748843Y-82835765D01*
X158889191Y-83045809D01*
X159099235Y-83186157D01*
X159347000Y-83235440D01*
X160947000Y-83235440D01*
X161194765Y-83186157D01*
X161404809Y-83045809D01*
X161545157Y-82835765D01*
X161594440Y-82588000D01*
X161594440Y-81191001D01*
X163341937Y-81191001D01*
X163408691Y-81257755D01*
X163451204Y-81321380D01*
X163703258Y-81489797D01*
X163925527Y-81534009D01*
X163925528Y-81534009D01*
X164000575Y-81548937D01*
X164075622Y-81534009D01*
X168707948Y-81534009D01*
X168782991Y-81548936D01*
X168858034Y-81534009D01*
X168858039Y-81534009D01*
X169080308Y-81489797D01*
X169332362Y-81321380D01*
X169374874Y-81257756D01*
X172974000Y-77658631D01*
X172974000Y-78001881D01*
X173186680Y-78515337D01*
X173579663Y-78908320D01*
X173786513Y-78994000D01*
X173579663Y-79079680D01*
X173186680Y-79472663D01*
X172974000Y-79986119D01*
X172974000Y-80541881D01*
X173186680Y-81055337D01*
X173579663Y-81448320D01*
X173786513Y-81534000D01*
X173579663Y-81619680D01*
X173186680Y-82012663D01*
X172974000Y-82526119D01*
X172974000Y-83081881D01*
X173186680Y-83595337D01*
X173579663Y-83988320D01*
X174093119Y-84201000D01*
X174648881Y-84201000D01*
X175162337Y-83988320D01*
X175555320Y-83595337D01*
X175768000Y-83081881D01*
X175768000Y-82526119D01*
X175555320Y-82012663D01*
X175162337Y-81619680D01*
X174955487Y-81534000D01*
X175162337Y-81448320D01*
X175555320Y-81055337D01*
X175768000Y-80541881D01*
X175768000Y-79986119D01*
X175555320Y-79472663D01*
X175162337Y-79079680D01*
X174955487Y-78994000D01*
X175162337Y-78908320D01*
X175555320Y-78515337D01*
X175768000Y-78001881D01*
X175768000Y-77446119D01*
X175555320Y-76932663D01*
X175162337Y-76539680D01*
X174955487Y-76454000D01*
X175162337Y-76368320D01*
X175555320Y-75975337D01*
X175768000Y-75461881D01*
X175768000Y-74906119D01*
X175555320Y-74392663D01*
X175162337Y-73999680D01*
X174955487Y-73914000D01*
X175162337Y-73828320D01*
X175555320Y-73435337D01*
X175768000Y-72921881D01*
X175768000Y-72366119D01*
X175555320Y-71852663D01*
X175162337Y-71459680D01*
X174971353Y-71380572D01*
X175102143Y-71326397D01*
X175171608Y-71084213D01*
X174371000Y-70283605D01*
X173570392Y-71084213D01*
X173639857Y-71326397D01*
X173780393Y-71376535D01*
X173579663Y-71459680D01*
X173411343Y-71628000D01*
X165170657Y-71628000D01*
X165002337Y-71459680D01*
X164811353Y-71380572D01*
X164942143Y-71326397D01*
X165011608Y-71084213D01*
X164211000Y-70283605D01*
X163410392Y-71084213D01*
X163479857Y-71326397D01*
X163620393Y-71376535D01*
X163419663Y-71459680D01*
X163251343Y-71628000D01*
X145517841Y-71628000D01*
X143786143Y-69896302D01*
X162801856Y-69896302D01*
X162829638Y-70451368D01*
X162988603Y-70835143D01*
X163230787Y-70904608D01*
X164031395Y-70104000D01*
X164390605Y-70104000D01*
X165191213Y-70904608D01*
X165433397Y-70835143D01*
X165620144Y-70311698D01*
X165599353Y-69896302D01*
X172961856Y-69896302D01*
X172989638Y-70451368D01*
X173148603Y-70835143D01*
X173390787Y-70904608D01*
X174191395Y-70104000D01*
X174550605Y-70104000D01*
X175351213Y-70904608D01*
X175593397Y-70835143D01*
X175780144Y-70311698D01*
X175752362Y-69756632D01*
X175593397Y-69372857D01*
X175351213Y-69303392D01*
X174550605Y-70104000D01*
X174191395Y-70104000D01*
X173390787Y-69303392D01*
X173148603Y-69372857D01*
X172961856Y-69896302D01*
X165599353Y-69896302D01*
X165592362Y-69756632D01*
X165433397Y-69372857D01*
X165191213Y-69303392D01*
X164390605Y-70104000D01*
X164031395Y-70104000D01*
X163230787Y-69303392D01*
X162988603Y-69372857D01*
X162801856Y-69896302D01*
X143786143Y-69896302D01*
X143013628Y-69123787D01*
X163410392Y-69123787D01*
X164211000Y-69924395D01*
X165011608Y-69123787D01*
X173570392Y-69123787D01*
X174371000Y-69924395D01*
X175171608Y-69123787D01*
X175102143Y-68881603D01*
X174578698Y-68694856D01*
X174023632Y-68722638D01*
X173639857Y-68881603D01*
X173570392Y-69123787D01*
X165011608Y-69123787D01*
X164942143Y-68881603D01*
X164418698Y-68694856D01*
X163863632Y-68722638D01*
X163479857Y-68881603D01*
X163410392Y-69123787D01*
X143013628Y-69123787D01*
X141657280Y-67767440D01*
X142875000Y-67767440D01*
X143122765Y-67718157D01*
X143332809Y-67577809D01*
X143473157Y-67367765D01*
X143518182Y-67141406D01*
X143678371Y-67034371D01*
X143846788Y-66782317D01*
X143905928Y-66485000D01*
X143846788Y-66187683D01*
X143678371Y-65935629D01*
X143518182Y-65828594D01*
X143496383Y-65719000D01*
X177408000Y-65719000D01*
X177408001Y-89249000D01*
X177408001Y-89249000D01*
G37*
X177408001Y-89249000D02*
X146500446Y-89249000D01*
X146592495Y-89187495D01*
X146649180Y-89102660D01*
X152528841Y-83223000D01*
X152668333Y-83223000D01*
X153086909Y-83139740D01*
X153561577Y-82822577D01*
X153878740Y-82347909D01*
X153990113Y-81788000D01*
X153878740Y-81228091D01*
X153853957Y-81191001D01*
X158699560Y-81191001D01*
X158699560Y-82588000D01*
X158748843Y-82835765D01*
X158889191Y-83045809D01*
X159099235Y-83186157D01*
X159347000Y-83235440D01*
X160947000Y-83235440D01*
X161194765Y-83186157D01*
X161404809Y-83045809D01*
X161545157Y-82835765D01*
X161594440Y-82588000D01*
X161594440Y-81191001D01*
X163341937Y-81191001D01*
X163408691Y-81257755D01*
X163451204Y-81321380D01*
X163703258Y-81489797D01*
X163925527Y-81534009D01*
X163925528Y-81534009D01*
X164000575Y-81548937D01*
X164075622Y-81534009D01*
X168707948Y-81534009D01*
X168782991Y-81548936D01*
X168858034Y-81534009D01*
X168858039Y-81534009D01*
X169080308Y-81489797D01*
X169332362Y-81321380D01*
X169374874Y-81257756D01*
X172974000Y-77658631D01*
X172974000Y-78001881D01*
X173186680Y-78515337D01*
X173579663Y-78908320D01*
X173786513Y-78994000D01*
X173579663Y-79079680D01*
X173186680Y-79472663D01*
X172974000Y-79986119D01*
X172974000Y-80541881D01*
X173186680Y-81055337D01*
X173579663Y-81448320D01*
X173786513Y-81534000D01*
X173579663Y-81619680D01*
X173186680Y-82012663D01*
X172974000Y-82526119D01*
X172974000Y-83081881D01*
X173186680Y-83595337D01*
X173579663Y-83988320D01*
X174093119Y-84201000D01*
X174648881Y-84201000D01*
X175162337Y-83988320D01*
X175555320Y-83595337D01*
X175768000Y-83081881D01*
X175768000Y-82526119D01*
X175555320Y-82012663D01*
X175162337Y-81619680D01*
X174955487Y-81534000D01*
X175162337Y-81448320D01*
X175555320Y-81055337D01*
X175768000Y-80541881D01*
X175768000Y-79986119D01*
X175555320Y-79472663D01*
X175162337Y-79079680D01*
X174955487Y-78994000D01*
X175162337Y-78908320D01*
X175555320Y-78515337D01*
X175768000Y-78001881D01*
X175768000Y-77446119D01*
X175555320Y-76932663D01*
X175162337Y-76539680D01*
X174955487Y-76454000D01*
X175162337Y-76368320D01*
X175555320Y-75975337D01*
X175768000Y-75461881D01*
X175768000Y-74906119D01*
X175555320Y-74392663D01*
X175162337Y-73999680D01*
X174955487Y-73914000D01*
X175162337Y-73828320D01*
X175555320Y-73435337D01*
X175768000Y-72921881D01*
X175768000Y-72366119D01*
X175555320Y-71852663D01*
X175162337Y-71459680D01*
X174971353Y-71380572D01*
X175102143Y-71326397D01*
X175171608Y-71084213D01*
X174371000Y-70283605D01*
X173570392Y-71084213D01*
X173639857Y-71326397D01*
X173780393Y-71376535D01*
X173579663Y-71459680D01*
X173411343Y-71628000D01*
X165170657Y-71628000D01*
X165002337Y-71459680D01*
X164811353Y-71380572D01*
X164942143Y-71326397D01*
X165011608Y-71084213D01*
X164211000Y-70283605D01*
X163410392Y-71084213D01*
X163479857Y-71326397D01*
X163620393Y-71376535D01*
X163419663Y-71459680D01*
X163251343Y-71628000D01*
X145517841Y-71628000D01*
X143786143Y-69896302D01*
X162801856Y-69896302D01*
X162829638Y-70451368D01*
X162988603Y-70835143D01*
X163230787Y-70904608D01*
X164031395Y-70104000D01*
X164390605Y-70104000D01*
X165191213Y-70904608D01*
X165433397Y-70835143D01*
X165620144Y-70311698D01*
X165599353Y-69896302D01*
X172961856Y-69896302D01*
X172989638Y-70451368D01*
X173148603Y-70835143D01*
X173390787Y-70904608D01*
X174191395Y-70104000D01*
X174550605Y-70104000D01*
X175351213Y-70904608D01*
X175593397Y-70835143D01*
X175780144Y-70311698D01*
X175752362Y-69756632D01*
X175593397Y-69372857D01*
X175351213Y-69303392D01*
X174550605Y-70104000D01*
X174191395Y-70104000D01*
X173390787Y-69303392D01*
X173148603Y-69372857D01*
X172961856Y-69896302D01*
X165599353Y-69896302D01*
X165592362Y-69756632D01*
X165433397Y-69372857D01*
X165191213Y-69303392D01*
X164390605Y-70104000D01*
X164031395Y-70104000D01*
X163230787Y-69303392D01*
X162988603Y-69372857D01*
X162801856Y-69896302D01*
X143786143Y-69896302D01*
X143013628Y-69123787D01*
X163410392Y-69123787D01*
X164211000Y-69924395D01*
X165011608Y-69123787D01*
X173570392Y-69123787D01*
X174371000Y-69924395D01*
X175171608Y-69123787D01*
X175102143Y-68881603D01*
X174578698Y-68694856D01*
X174023632Y-68722638D01*
X173639857Y-68881603D01*
X173570392Y-69123787D01*
X165011608Y-69123787D01*
X164942143Y-68881603D01*
X164418698Y-68694856D01*
X163863632Y-68722638D01*
X163479857Y-68881603D01*
X163410392Y-69123787D01*
X143013628Y-69123787D01*
X141657280Y-67767440D01*
X142875000Y-67767440D01*
X143122765Y-67718157D01*
X143332809Y-67577809D01*
X143473157Y-67367765D01*
X143518182Y-67141406D01*
X143678371Y-67034371D01*
X143846788Y-66782317D01*
X143905928Y-66485000D01*
X143846788Y-66187683D01*
X143678371Y-65935629D01*
X143518182Y-65828594D01*
X143496383Y-65719000D01*
X177408000Y-65719000D01*
X177408001Y-89249000D01*
G36*
X137147560Y-65850000D02*
X137147560Y-67120000D01*
X137196843Y-67367765D01*
X137337191Y-67577809D01*
X137547235Y-67718157D01*
X137795000Y-67767440D01*
X139319000Y-67767440D01*
X139319000Y-67781936D01*
X139299096Y-67882000D01*
X139319000Y-67982063D01*
X139319000Y-67982064D01*
X139377949Y-68278422D01*
X139602505Y-68614495D01*
X139687340Y-68671180D01*
X144307822Y-73291663D01*
X144364505Y-73376495D01*
X144700577Y-73601051D01*
X144996935Y-73660000D01*
X144996936Y-73660000D01*
X145097000Y-73679904D01*
X145197063Y-73660000D01*
X151164935Y-73660000D01*
X151063887Y-74168000D01*
X151175260Y-74727909D01*
X151492423Y-75202577D01*
X151844758Y-75438000D01*
X151492423Y-75673423D01*
X151175260Y-76148091D01*
X151063887Y-76708000D01*
X151175260Y-77267909D01*
X151492423Y-77742577D01*
X151844758Y-77978000D01*
X151492423Y-78213423D01*
X151175260Y-78688091D01*
X151063887Y-79248000D01*
X151175260Y-79807909D01*
X151492423Y-80282577D01*
X151844758Y-80518000D01*
X151492423Y-80753423D01*
X151175260Y-81228091D01*
X151063887Y-81788000D01*
X151068246Y-81809913D01*
X145439160Y-87439000D01*
X143384132Y-87439000D01*
X143332809Y-87362191D01*
X143122765Y-87221843D01*
X142875000Y-87172560D01*
X141351000Y-87172560D01*
X141351000Y-86919905D01*
X141311955Y-86825641D01*
X141292051Y-86725577D01*
X141235370Y-86640748D01*
X141196324Y-86546482D01*
X141124176Y-86474334D01*
X141067495Y-86389505D01*
X140982667Y-86332825D01*
X140910518Y-86260676D01*
X140816250Y-86221629D01*
X140731422Y-86164949D01*
X140631359Y-86145045D01*
X140537095Y-86106000D01*
X140435064Y-86106000D01*
X140335000Y-86086096D01*
X140234935Y-86106000D01*
X140132905Y-86106000D01*
X140038641Y-86145045D01*
X139938577Y-86164949D01*
X139853748Y-86221630D01*
X139759482Y-86260676D01*
X139687334Y-86332824D01*
X139602505Y-86389505D01*
X139545825Y-86474333D01*
X139473676Y-86546482D01*
X139434629Y-86640750D01*
X139377949Y-86725578D01*
X139358045Y-86825640D01*
X139319000Y-86919905D01*
X139319000Y-87172560D01*
X137795000Y-87172560D01*
X137547235Y-87221843D01*
X137337191Y-87362191D01*
X137196843Y-87572235D01*
X137147560Y-87820000D01*
X137147560Y-89090000D01*
X137179187Y-89249000D01*
X128878000Y-89249000D01*
X128878000Y-77755750D01*
X137720000Y-77755750D01*
X137720000Y-79576309D01*
X137816673Y-79809698D01*
X137995301Y-79988327D01*
X138228690Y-80085000D01*
X140049250Y-80085000D01*
X140208000Y-79926250D01*
X140208000Y-77597000D01*
X140462000Y-77597000D01*
X140462000Y-79926250D01*
X140620750Y-80085000D01*
X142441310Y-80085000D01*
X142674699Y-79988327D01*
X142853327Y-79809698D01*
X142950000Y-79576309D01*
X142950000Y-77755750D01*
X142791250Y-77597000D01*
X140462000Y-77597000D01*
X140208000Y-77597000D01*
X137878750Y-77597000D01*
X137720000Y-77755750D01*
X128878000Y-77755750D01*
X128878000Y-75363691D01*
X137720000Y-75363691D01*
X137720000Y-77184250D01*
X137878750Y-77343000D01*
X140208000Y-77343000D01*
X140208000Y-75013750D01*
X140462000Y-75013750D01*
X140462000Y-77343000D01*
X142791250Y-77343000D01*
X142950000Y-77184250D01*
X142950000Y-75363691D01*
X142853327Y-75130302D01*
X142674699Y-74951673D01*
X142441310Y-74855000D01*
X140620750Y-74855000D01*
X140462000Y-75013750D01*
X140208000Y-75013750D01*
X140049250Y-74855000D01*
X138228690Y-74855000D01*
X137995301Y-74951673D01*
X137816673Y-75130302D01*
X137720000Y-75363691D01*
X128878000Y-75363691D01*
X128878000Y-65719000D01*
X137173617Y-65719000D01*
X137147560Y-65850000D01*
X137147560Y-65850000D01*
G37*
X137147560Y-65850000D02*
X137147560Y-67120000D01*
X137196843Y-67367765D01*
X137337191Y-67577809D01*
X137547235Y-67718157D01*
X137795000Y-67767440D01*
X139319000Y-67767440D01*
X139319000Y-67781936D01*
X139299096Y-67882000D01*
X139319000Y-67982063D01*
X139319000Y-67982064D01*
X139377949Y-68278422D01*
X139602505Y-68614495D01*
X139687340Y-68671180D01*
X144307822Y-73291663D01*
X144364505Y-73376495D01*
X144700577Y-73601051D01*
X144996935Y-73660000D01*
X144996936Y-73660000D01*
X145097000Y-73679904D01*
X145197063Y-73660000D01*
X151164935Y-73660000D01*
X151063887Y-74168000D01*
X151175260Y-74727909D01*
X151492423Y-75202577D01*
X151844758Y-75438000D01*
X151492423Y-75673423D01*
X151175260Y-76148091D01*
X151063887Y-76708000D01*
X151175260Y-77267909D01*
X151492423Y-77742577D01*
X151844758Y-77978000D01*
X151492423Y-78213423D01*
X151175260Y-78688091D01*
X151063887Y-79248000D01*
X151175260Y-79807909D01*
X151492423Y-80282577D01*
X151844758Y-80518000D01*
X151492423Y-80753423D01*
X151175260Y-81228091D01*
X151063887Y-81788000D01*
X151068246Y-81809913D01*
X145439160Y-87439000D01*
X143384132Y-87439000D01*
X143332809Y-87362191D01*
X143122765Y-87221843D01*
X142875000Y-87172560D01*
X141351000Y-87172560D01*
X141351000Y-86919905D01*
X141311955Y-86825641D01*
X141292051Y-86725577D01*
X141235370Y-86640748D01*
X141196324Y-86546482D01*
X141124176Y-86474334D01*
X141067495Y-86389505D01*
X140982667Y-86332825D01*
X140910518Y-86260676D01*
X140816250Y-86221629D01*
X140731422Y-86164949D01*
X140631359Y-86145045D01*
X140537095Y-86106000D01*
X140435064Y-86106000D01*
X140335000Y-86086096D01*
X140234935Y-86106000D01*
X140132905Y-86106000D01*
X140038641Y-86145045D01*
X139938577Y-86164949D01*
X139853748Y-86221630D01*
X139759482Y-86260676D01*
X139687334Y-86332824D01*
X139602505Y-86389505D01*
X139545825Y-86474333D01*
X139473676Y-86546482D01*
X139434629Y-86640750D01*
X139377949Y-86725578D01*
X139358045Y-86825640D01*
X139319000Y-86919905D01*
X139319000Y-87172560D01*
X137795000Y-87172560D01*
X137547235Y-87221843D01*
X137337191Y-87362191D01*
X137196843Y-87572235D01*
X137147560Y-87820000D01*
X137147560Y-89090000D01*
X137179187Y-89249000D01*
X128878000Y-89249000D01*
X128878000Y-77755750D01*
X137720000Y-77755750D01*
X137720000Y-79576309D01*
X137816673Y-79809698D01*
X137995301Y-79988327D01*
X138228690Y-80085000D01*
X140049250Y-80085000D01*
X140208000Y-79926250D01*
X140208000Y-77597000D01*
X140462000Y-77597000D01*
X140462000Y-79926250D01*
X140620750Y-80085000D01*
X142441310Y-80085000D01*
X142674699Y-79988327D01*
X142853327Y-79809698D01*
X142950000Y-79576309D01*
X142950000Y-77755750D01*
X142791250Y-77597000D01*
X140462000Y-77597000D01*
X140208000Y-77597000D01*
X137878750Y-77597000D01*
X137720000Y-77755750D01*
X128878000Y-77755750D01*
X128878000Y-75363691D01*
X137720000Y-75363691D01*
X137720000Y-77184250D01*
X137878750Y-77343000D01*
X140208000Y-77343000D01*
X140208000Y-75013750D01*
X140462000Y-75013750D01*
X140462000Y-77343000D01*
X142791250Y-77343000D01*
X142950000Y-77184250D01*
X142950000Y-75363691D01*
X142853327Y-75130302D01*
X142674699Y-74951673D01*
X142441310Y-74855000D01*
X140620750Y-74855000D01*
X140462000Y-75013750D01*
X140208000Y-75013750D01*
X140049250Y-74855000D01*
X138228690Y-74855000D01*
X137995301Y-74951673D01*
X137816673Y-75130302D01*
X137720000Y-75363691D01*
X128878000Y-75363691D01*
X128878000Y-65719000D01*
X137173617Y-65719000D01*
X137147560Y-65850000D01*
G36*
X158755096Y-73818961D02*
X158877085Y-74041000D01*
X160020000Y-74041000D01*
X160020000Y-74021000D01*
X160274000Y-74021000D01*
X160274000Y-74041000D01*
X161416915Y-74041000D01*
X161538904Y-73818961D01*
X161473065Y-73660000D01*
X163251343Y-73660000D01*
X163419663Y-73828320D01*
X163626513Y-73914000D01*
X163419663Y-73999680D01*
X163026680Y-74392663D01*
X162814000Y-74906119D01*
X162814000Y-75461881D01*
X163026680Y-75975337D01*
X163419663Y-76368320D01*
X163626513Y-76454000D01*
X163419663Y-76539680D01*
X163026680Y-76932663D01*
X162814000Y-77446119D01*
X162814000Y-78001881D01*
X163026680Y-78515337D01*
X163419663Y-78908320D01*
X163933119Y-79121000D01*
X164488881Y-79121000D01*
X165002337Y-78908320D01*
X165395320Y-78515337D01*
X165608000Y-78001881D01*
X165608000Y-77446119D01*
X165395320Y-76932663D01*
X165002337Y-76539680D01*
X164795487Y-76454000D01*
X165002337Y-76368320D01*
X165395320Y-75975337D01*
X165608000Y-75461881D01*
X165608000Y-74906119D01*
X165395320Y-74392663D01*
X165002337Y-73999680D01*
X164795487Y-73914000D01*
X165002337Y-73828320D01*
X165170657Y-73660000D01*
X173411343Y-73660000D01*
X173579663Y-73828320D01*
X173786513Y-73914000D01*
X173579663Y-73999680D01*
X173186680Y-74392663D01*
X172974000Y-74906119D01*
X172974000Y-75461881D01*
X172986152Y-75491217D01*
X168467361Y-80010009D01*
X164316205Y-80010009D01*
X164249451Y-79943255D01*
X164206938Y-79879630D01*
X163954884Y-79711213D01*
X163732615Y-79667001D01*
X163732610Y-79667001D01*
X163657567Y-79652074D01*
X163582524Y-79667001D01*
X161526768Y-79667001D01*
X161610113Y-79248000D01*
X161498740Y-78688091D01*
X161181577Y-78213423D01*
X160829242Y-77978000D01*
X161181577Y-77742577D01*
X161498740Y-77267909D01*
X161610113Y-76708000D01*
X161498740Y-76148091D01*
X161181577Y-75673423D01*
X160797892Y-75417053D01*
X161002134Y-75320389D01*
X161378041Y-74905423D01*
X161538904Y-74517039D01*
X161416915Y-74295000D01*
X160274000Y-74295000D01*
X160274000Y-74315000D01*
X160020000Y-74315000D01*
X160020000Y-74295000D01*
X158877085Y-74295000D01*
X158755096Y-74517039D01*
X158915959Y-74905423D01*
X159291866Y-75320389D01*
X159496108Y-75417053D01*
X159112423Y-75673423D01*
X158795260Y-76148091D01*
X158683887Y-76708000D01*
X158795260Y-77267909D01*
X159112423Y-77742577D01*
X159464758Y-77978000D01*
X159112423Y-78213423D01*
X158795260Y-78688091D01*
X158683887Y-79248000D01*
X158767232Y-79667001D01*
X154023632Y-79667001D01*
X153926157Y-79569527D01*
X153990113Y-79248000D01*
X153878740Y-78688091D01*
X153561577Y-78213423D01*
X153209242Y-77978000D01*
X153561577Y-77742577D01*
X153878740Y-77267909D01*
X153990113Y-76708000D01*
X153878740Y-76148091D01*
X153561577Y-75673423D01*
X153209242Y-75438000D01*
X153561577Y-75202577D01*
X153878740Y-74727909D01*
X153990113Y-74168000D01*
X153889065Y-73660000D01*
X158820935Y-73660000D01*
X158755096Y-73818961D01*
X158755096Y-73818961D01*
G37*
X158755096Y-73818961D02*
X158877085Y-74041000D01*
X160020000Y-74041000D01*
X160020000Y-74021000D01*
X160274000Y-74021000D01*
X160274000Y-74041000D01*
X161416915Y-74041000D01*
X161538904Y-73818961D01*
X161473065Y-73660000D01*
X163251343Y-73660000D01*
X163419663Y-73828320D01*
X163626513Y-73914000D01*
X163419663Y-73999680D01*
X163026680Y-74392663D01*
X162814000Y-74906119D01*
X162814000Y-75461881D01*
X163026680Y-75975337D01*
X163419663Y-76368320D01*
X163626513Y-76454000D01*
X163419663Y-76539680D01*
X163026680Y-76932663D01*
X162814000Y-77446119D01*
X162814000Y-78001881D01*
X163026680Y-78515337D01*
X163419663Y-78908320D01*
X163933119Y-79121000D01*
X164488881Y-79121000D01*
X165002337Y-78908320D01*
X165395320Y-78515337D01*
X165608000Y-78001881D01*
X165608000Y-77446119D01*
X165395320Y-76932663D01*
X165002337Y-76539680D01*
X164795487Y-76454000D01*
X165002337Y-76368320D01*
X165395320Y-75975337D01*
X165608000Y-75461881D01*
X165608000Y-74906119D01*
X165395320Y-74392663D01*
X165002337Y-73999680D01*
X164795487Y-73914000D01*
X165002337Y-73828320D01*
X165170657Y-73660000D01*
X173411343Y-73660000D01*
X173579663Y-73828320D01*
X173786513Y-73914000D01*
X173579663Y-73999680D01*
X173186680Y-74392663D01*
X172974000Y-74906119D01*
X172974000Y-75461881D01*
X172986152Y-75491217D01*
X168467361Y-80010009D01*
X164316205Y-80010009D01*
X164249451Y-79943255D01*
X164206938Y-79879630D01*
X163954884Y-79711213D01*
X163732615Y-79667001D01*
X163732610Y-79667001D01*
X163657567Y-79652074D01*
X163582524Y-79667001D01*
X161526768Y-79667001D01*
X161610113Y-79248000D01*
X161498740Y-78688091D01*
X161181577Y-78213423D01*
X160829242Y-77978000D01*
X161181577Y-77742577D01*
X161498740Y-77267909D01*
X161610113Y-76708000D01*
X161498740Y-76148091D01*
X161181577Y-75673423D01*
X160797892Y-75417053D01*
X161002134Y-75320389D01*
X161378041Y-74905423D01*
X161538904Y-74517039D01*
X161416915Y-74295000D01*
X160274000Y-74295000D01*
X160274000Y-74315000D01*
X160020000Y-74315000D01*
X160020000Y-74295000D01*
X158877085Y-74295000D01*
X158755096Y-74517039D01*
X158915959Y-74905423D01*
X159291866Y-75320389D01*
X159496108Y-75417053D01*
X159112423Y-75673423D01*
X158795260Y-76148091D01*
X158683887Y-76708000D01*
X158795260Y-77267909D01*
X159112423Y-77742577D01*
X159464758Y-77978000D01*
X159112423Y-78213423D01*
X158795260Y-78688091D01*
X158683887Y-79248000D01*
X158767232Y-79667001D01*
X154023632Y-79667001D01*
X153926157Y-79569527D01*
X153990113Y-79248000D01*
X153878740Y-78688091D01*
X153561577Y-78213423D01*
X153209242Y-77978000D01*
X153561577Y-77742577D01*
X153878740Y-77267909D01*
X153990113Y-76708000D01*
X153878740Y-76148091D01*
X153561577Y-75673423D01*
X153209242Y-75438000D01*
X153561577Y-75202577D01*
X153878740Y-74727909D01*
X153990113Y-74168000D01*
X153889065Y-73660000D01*
X158820935Y-73660000D01*
X158755096Y-73818961D01*
M02*
